<?xml version="1.0" encoding="UTF-8"?>
<!-- Generator: CustomSymbols v2.6.4.43 by @serious_bret https://bretlester.com/app_content/CustomSymbols/ -->
<!-- Guides: Left/Right 0.0/0.0 Cap/Base 0.15/0.15 -->
<!-- Settings: RefScale 1.0 Min/Max Stroke Scales 0.5/2.21 -->
<!DOCTYPE svg
PUBLIC "-//W3C//DTD SVG 1.1//EN"
       "http://www.w3.org/Graphics/SVG/1.1/DTD/svg11.dtd">
<svg version="1.1" xmlns="http://www.w3.org/2000/svg" xmlns:xlink="http://www.w3.org/1999/xlink" width="3300" height="2200">
<![CDATA[﻿<?xml version="1.0" encoding="UTF-8"?>
<!DOCTYPE svg PUBLIC "-//W3C//DTD SVG 1.1//EN" "http://www.w3.org/Graphics/SVG/1.1/DTD/svg11.dtd">
<svg version="1.1" xmlns="http://www.w3.org/2000/svg" xmlns:xlink="http://www.w3.org/1999/xlink" width="74.45" height="74.45">
	<g transform="translate(37.225, 37.225)" stroke="#000000" stroke-width="2">
		<path d="M 0 0 -25.615 25.615 A 36.225 36.225 0 0 1 -25.615 -25.615 Z" fill="#ffffff"/>
		<path d="M 0 0 -25.615 -25.615 A 36.225 36.225 0 0 1 25.615 -25.615 Z" fill="#000000"/>
		<path d="M 0 0 25.615 -25.615 A 36.225 36.225 0 0 1 25.615 25.615 Z" fill="#ffffff"/>
		<path d="M 0 0 25.615 25.615 A 36.225 36.225 0 0 1 -25.615 25.615 Z" fill="#ffffff"/>
	</g>
</svg>]]>
 <g id="Notes">
  <rect height="2200" id="artboard" style="fill:white;opacity:1" width="3300" x="0" y="0"/>
  <line id="" style="fill:none;stroke:black;opacity:1;stroke-width:0.5;" x1="263" x2="3036" y1="292" y2="292"/>
  <text id="reftext1" style="stroke:none;fill:black;font-family:-apple-system,&quot;SF Pro Display&quot;,&quot;SF Pro Text&quot;,Helvetica,sans-serif;font-weight:bold;" transform="matrix(1 0 0 1 263 322)">Weight/Scale Variations</text>
  <text id="reftext2" style="stroke:none;fill:black;font-family:-apple-system,&quot;SF Pro Display&quot;,&quot;SF Pro Text&quot;,Helvetica,sans-serif;text-anchor:middle;" transform="matrix(1 0 0 1 559.711 322)">Ultralight</text>
  <text style="stroke:none;fill:black;font-family:-apple-system,&quot;SF Pro Display&quot;,&quot;SF Pro Text&quot;,Helvetica,sans-serif;text-anchor:middle;" transform="matrix(1 0 0 1 856.422 322)">Thin</text>
  <text style="stroke:none;fill:black;font-family:-apple-system,&quot;SF Pro Display&quot;,&quot;SF Pro Text&quot;,Helvetica,sans-serif;text-anchor:middle;" transform="matrix(1 0 0 1 1153.13 322)">Light</text>
  <text style="stroke:none;fill:black;font-family:-apple-system,&quot;SF Pro Display&quot;,&quot;SF Pro Text&quot;,Helvetica,sans-serif;text-anchor:middle;" transform="matrix(1 0 0 1 1449.84 322)">Regular</text>
  <text style="stroke:none;fill:black;font-family:-apple-system,&quot;SF Pro Display&quot;,&quot;SF Pro Text&quot;,Helvetica,sans-serif;text-anchor:middle;" transform="matrix(1 0 0 1 1746.56 322)">Medium</text>
  <text style="stroke:none;fill:black;font-family:-apple-system,&quot;SF Pro Display&quot;,&quot;SF Pro Text&quot;,Helvetica,sans-serif;text-anchor:middle;" transform="matrix(1 0 0 1 2043.27 322)">Semibold</text>
  <text style="stroke:none;fill:black;font-family:-apple-system,&quot;SF Pro Display&quot;,&quot;SF Pro Text&quot;,Helvetica,sans-serif;text-anchor:middle;" transform="matrix(1 0 0 1 2339.98 322)">Bold</text>
  <text style="stroke:none;fill:black;font-family:-apple-system,&quot;SF Pro Display&quot;,&quot;SF Pro Text&quot;,Helvetica,sans-serif;text-anchor:middle;" transform="matrix(1 0 0 1 2636.69 322)">Heavy</text>
  <text style="stroke:none;fill:black;font-family:-apple-system,&quot;SF Pro Display&quot;,&quot;SF Pro Text&quot;,Helvetica,sans-serif;text-anchor:middle;" transform="matrix(1 0 0 1 2933.4 322)">Black</text>
  <line id="" style="fill:none;stroke:black;opacity:1;stroke-width:0.5;" x1="263" x2="3036" y1="1903" y2="1903"/>
  <g id="" transform="matrix(1 0 0 1 263 1933)">
   <path d="M9.24805 0.830078C13.5547 0.830078 17.1387-2.74414 17.1387-7.05078C17.1387-11.3574 13.5449-14.9316 9.23828-14.9316C4.94141-14.9316 1.36719-11.3574 1.36719-7.05078C1.36719-2.74414 4.95117 0.830078 9.24805 0.830078ZM9.24805-0.654297C5.70312-0.654297 2.87109-3.49609 2.87109-7.05078C2.87109-10.6055 5.69336-13.4473 9.23828-13.4473C12.793-13.4473 15.6348-10.6055 15.6445-7.05078C15.6543-3.49609 12.8027-0.654297 9.24805-0.654297ZM6.39648-6.31836L8.50586-6.31836L8.50586-4.19922C8.50586-3.75977 8.79883-3.45703 9.22852-3.45703C9.67773-3.45703 9.9707-3.75977 9.9707-4.19922L9.9707-6.31836L12.0996-6.31836C12.5391-6.31836 12.8418-6.61133 12.8418-7.04102C12.8418-7.48047 12.5391-7.7832 12.0996-7.7832L9.9707-7.7832L9.9707-9.89258C9.9707-10.3418 9.67773-10.6445 9.22852-10.6445C8.79883-10.6445 8.50586-10.3418 8.50586-9.89258L8.50586-7.7832L6.39648-7.7832C5.94727-7.7832 5.64453-7.48047 5.64453-7.04102C5.64453-6.61133 5.94727-6.31836 6.39648-6.31836Z"/>
  </g>
  <g id="" transform="matrix(1 0 0 1 281.506 1933)">
   <path d="M11.709 2.91016C17.1582 2.91016 21.6699-1.61133 21.6699-7.05078C21.6699-12.5 17.1484-17.0117 11.6992-17.0117C6.25977-17.0117 1.74805-12.5 1.74805-7.05078C1.74805-1.61133 6.26953 2.91016 11.709 2.91016ZM11.709 1.25C7.09961 1.25 3.41797-2.44141 3.41797-7.05078C3.41797-11.6602 7.08984-15.3516 11.6992-15.3516C16.3086-15.3516 20-11.6602 20.0098-7.05078C20.0195-2.44141 16.3184 1.25 11.709 1.25ZM7.98828-6.23047L10.8789-6.23047L10.8789-3.32031C10.8789-2.83203 11.2109-2.5 11.6895-2.5C12.1777-2.5 12.5195-2.83203 12.5195-3.32031L12.5195-6.23047L15.4297-6.23047C15.918-6.23047 16.25-6.5625 16.25-7.04102C16.25-7.5293 15.918-7.87109 15.4297-7.87109L12.5195-7.87109L12.5195-10.7617C12.5195-11.2695 12.1777-11.6016 11.6895-11.6016C11.2109-11.6016 10.8789-11.2598 10.8789-10.7617L10.8789-7.87109L7.98828-7.87109C7.48047-7.87109 7.14844-7.5293 7.14844-7.04102C7.14844-6.5625 7.49023-6.23047 7.98828-6.23047Z"/>
  </g>
  <g id="" transform="matrix(1 0 0 1 304.924 1933)">
   <path d="M14.9707 5.66406C21.9336 5.66406 27.6953-0.0976562 27.6953-7.05078C27.6953-14.0137 21.9238-19.7754 14.9609-19.7754C8.00781-19.7754 2.25586-14.0137 2.25586-7.05078C2.25586-0.0976562 8.01758 5.66406 14.9707 5.66406ZM14.9707 3.84766C8.93555 3.84766 4.08203-1.01562 4.08203-7.05078C4.08203-13.0957 8.92578-17.9492 14.9609-17.9492C21.0059-17.9492 25.8594-13.0957 25.8691-7.05078C25.8789-1.01562 21.0156 3.84766 14.9707 3.84766ZM10.0586-6.14258L14.0625-6.14258L14.0625-2.12891C14.0625-1.5918 14.4336-1.2207 14.9512-1.2207C15.4883-1.2207 15.8594-1.5918 15.8594-2.12891L15.8594-6.14258L19.8828-6.14258C20.4102-6.14258 20.791-6.51367 20.791-7.03125C20.791-7.56836 20.4199-7.94922 19.8828-7.94922L15.8594-7.94922L15.8594-11.9531C15.8594-12.5098 15.4883-12.8809 14.9512-12.8809C14.4336-12.8809 14.0625-12.5 14.0625-11.9531L14.0625-7.94922L10.0586-7.94922C9.50195-7.94922 9.13086-7.56836 9.13086-7.03125C9.13086-6.51367 9.51172-6.14258 10.0586-6.14258Z"/>
  </g>
  <text style="stroke:none;fill:black;font-family:-apple-system,&quot;SF Pro Display&quot;,&quot;SF Pro Text&quot;,Helvetica,sans-serif;font-weight:bold;" transform="matrix(1 0 0 1 263 1953)">Design Variations</text>
  <text style="stroke:none;fill:black;font-family:-apple-system,&quot;SF Pro Display&quot;,&quot;SF Pro Text&quot;,Helvetica,sans-serif;" transform="matrix(1 0 0 1 263 1971)">Symbols are supported in up to nine weights and three scales.</text>
  <text style="stroke:none;fill:black;font-family:-apple-system,&quot;SF Pro Display&quot;,&quot;SF Pro Text&quot;,Helvetica,sans-serif;" transform="matrix(1 0 0 1 263 1989)">For optimal layout with text and other symbols, vertically align</text>
  <text style="stroke:none;fill:black;font-family:-apple-system,&quot;SF Pro Display&quot;,&quot;SF Pro Text&quot;,Helvetica,sans-serif;" transform="matrix(1 0 0 1 263 2007)">symbols with the adjacent text.</text>
  <line id="" style="fill:none;stroke:#00AEEF;stroke-width:0.5;opacity:1.0;" x1="776" x2="776" y1="1919" y2="1933"/>
  <g id="" transform="matrix(1 0 0 1 776 1933)">
   <path d="M3.31055 0.126953C3.82812 0.126953 4.08203-0.0683594 4.26758-0.605469L5.52734-4.0625L11.2891-4.0625L12.5488-0.605469C12.7344-0.0683594 12.9883 0.126953 13.4961 0.126953C14.0137 0.126953 14.3457-0.185547 14.3457-0.673828C14.3457-0.839844 14.3164-0.986328 14.2383-1.20117L9.6582-13.3887C9.43359-13.9941 9.0332-14.2871 8.4082-14.2871C7.80273-14.2871 7.39258-13.9941 7.17773-13.3984L2.59766-1.19141C2.51953-0.976562 2.49023-0.830078 2.49023-0.664062C2.49023-0.175781 2.80273 0.126953 3.31055 0.126953ZM6.00586-5.53711L8.37891-12.1094L8.42773-12.1094L10.8008-5.53711Z"/>
  </g>
  <line id="" style="fill:none;stroke:#00AEEF;stroke-width:0.5;opacity:1.0;" x1="792.836" x2="792.836" y1="1919" y2="1933"/>
  <text style="stroke:none;fill:black;font-family:-apple-system,&quot;SF Pro Display&quot;,&quot;SF Pro Text&quot;,Helvetica,sans-serif;font-weight:bold;" transform="matrix(1 0 0 1 776 1953)">Margins</text>
  <text style="stroke:none;fill:black;font-family:-apple-system,&quot;SF Pro Display&quot;,&quot;SF Pro Text&quot;,Helvetica,sans-serif;" transform="matrix(1 0 0 1 776 1971)">Leading and trailing margins on the left and right side of each symbol</text>
  <text style="stroke:none;fill:black;font-family:-apple-system,&quot;SF Pro Display&quot;,&quot;SF Pro Text&quot;,Helvetica,sans-serif;" transform="matrix(1 0 0 1 776 1989)">can be adjusted by modifying the x-location of the margin guidelines.</text>
  <text style="stroke:none;fill:black;font-family:-apple-system,&quot;SF Pro Display&quot;,&quot;SF Pro Text&quot;,Helvetica,sans-serif;" transform="matrix(1 0 0 1 776 2007)">Modifications are automatically applied proportionally to all</text>
  <text style="stroke:none;fill:black;font-family:-apple-system,&quot;SF Pro Display&quot;,&quot;SF Pro Text&quot;,Helvetica,sans-serif;" transform="matrix(1 0 0 1 776 2025)">scales and weights.</text>
  <g id="" transform="matrix(1 0 0 1 1289 1933)">
   <path d="M2.8418 1.86523L4.54102 3.57422C5.40039 4.44336 6.38672 4.38477 7.31445 3.35938L17.4902-7.85156C17.7539-7.76367 18.0273-7.7832 18.3398-7.8418L19.4043-8.03711L20.0684-7.36328L20.0293-6.80664C19.9902-6.30859 20.1172-5.92773 20.6055-5.44922L21.3672-4.70703C21.8457-4.22852 22.4609-4.19922 22.9297-4.66797L25.8398-7.58789C26.3086-8.05664 26.2891-8.65234 25.8105-9.13086L25.0391-9.89258C24.5605-10.3711 24.1895-10.5273 23.7109-10.4883L23.1348-10.4395L22.4902-11.0742L22.7344-12.1973C22.8613-12.7637 22.7051-13.2031 22.1191-13.7891L19.9219-15.9766C16.582-19.2969 12.1484-19.2188 9.25781-16.3281C8.83789-15.918 8.80859-15.3418 9.04297-14.9512C9.27734-14.5898 9.73633-14.3555 10.3809-14.5215C11.8457-14.8633 13.3691-14.9219 14.7949-13.9844L14.209-12.5293C14.0137-12.0508 13.9844-11.6504 14.1113-11.2891L3.04688-0.898438C2.06055 0.0195312 1.98242 0.996094 2.8418 1.86523ZM10.752-15.957C13.1836-17.7344 16.4746-17.4316 18.7012-15.2051L21.1328-12.793C21.3672-12.5586 21.4062-12.373 21.3379-12.0312L21.0156-10.5469L22.5195-9.0625L23.5059-9.12109C23.7598-9.13086 23.8379-9.11133 24.0332-8.91602L24.6094-8.33984L22.168-5.89844L21.5918-6.47461C21.3965-6.66992 21.3672-6.74805 21.377-7.01172L21.4453-7.98828L19.9512-9.47266L18.4277-9.21875C18.1055-9.15039 17.959-9.17969 17.7148-9.41406L15.7129-11.416C15.459-11.6504 15.4297-11.8164 15.5859-12.1875L16.4648-14.2773C14.9023-15.7324 12.8711-16.3574 10.8398-15.7617C10.6836-15.7227 10.625-15.8496 10.752-15.957ZM5.27344 2.30469L4.10156 1.14258C3.63281 0.683594 3.74023 0.341797 4.14062-0.0195312L14.9512-10.1953L16.416-8.71094L6.42578 2.27539C6.07422 2.67578 5.74219 2.77344 5.27344 2.30469Z"/>
  </g>
  <text style="stroke:none;fill:black;font-family:-apple-system,&quot;SF Pro Display&quot;,&quot;SF Pro Text&quot;,Helvetica,sans-serif;font-weight:bold;" transform="matrix(1 0 0 1 1289 1953)">Exporting</text>
  <text style="stroke:none;fill:black;font-family:-apple-system,&quot;SF Pro Display&quot;,&quot;SF Pro Text&quot;,Helvetica,sans-serif;" transform="matrix(1 0 0 1 1289 1971)">Symbols should be outlined when exporting to ensure the</text>
  <text style="stroke:none;fill:black;font-family:-apple-system,&quot;SF Pro Display&quot;,&quot;SF Pro Text&quot;,Helvetica,sans-serif;" transform="matrix(1 0 0 1 1289 1989)">design is preserved when submitting to Xcode.</text>
  <text id="template-version" style="stroke:none;fill:black;font-family:-apple-system,&quot;SF Pro Display&quot;,&quot;SF Pro Text&quot;,Helvetica,sans-serif;text-anchor:end;" transform="matrix(1 0 0 1 3036 1933)">Template v.2.0</text>
  <text style="stroke:none;fill:black;font-family:-apple-system,&quot;SF Pro Display&quot;,&quot;SF Pro Text&quot;,Helvetica,sans-serif;text-anchor:end;" transform="matrix(1 0 0 1 3036 1951)">Requires Xcode 12 or greater</text>
  <text style="stroke:none;fill:black;font-family:-apple-system,&quot;SF Pro Display&quot;,&quot;SF Pro Text&quot;,Helvetica,sans-serif;" transform="matrix(1 0 0 1 263 726)">Small</text>
  <text style="stroke:none;fill:black;font-family:-apple-system,&quot;SF Pro Display&quot;,&quot;SF Pro Text&quot;,Helvetica,sans-serif;" transform="matrix(1 0 0 1 263 1156)">Medium</text>
  <text style="stroke:none;fill:black;font-family:-apple-system,&quot;SF Pro Display&quot;,&quot;SF Pro Text&quot;,Helvetica,sans-serif;" transform="matrix(1 0 0 1 263 1586)">Large</text>
 </g>
 <g id="Guides">
  <g id="H-reference" style="fill:#27AAE1;stroke:none;" transform="matrix(1 0 0 1 339 696)">
   <path d="M0.976562 0L3.66211 0L12.9883-24.4629L45.752-24.4629L55.127 0L57.7637 0L30.6152-70.459L28.125-70.459ZM29.3457-67.1387L29.4434-67.1387L44.873-26.709L13.8672-26.709Z"/>
  </g>
  <line id="Baseline-S" style="fill:none;stroke:#27AAE1;opacity:1;stroke-width:0.5;" x1="263" x2="3036" y1="696" y2="696"/>
  <line id="Capline-S" style="fill:none;stroke:#27AAE1;opacity:1;stroke-width:0.5;" x1="263" x2="3036" y1="625.541" y2="625.541"/>
  <g id="H-reference" style="fill:#27AAE1;stroke:none;" transform="matrix(1 0 0 1 339 1126)">
   <path d="M0.976562 0L3.66211 0L12.9883-24.4629L45.752-24.4629L55.127 0L57.7637 0L30.6152-70.459L28.125-70.459ZM29.3457-67.1387L29.4434-67.1387L44.873-26.709L13.8672-26.709Z"/>
  </g>
  <line id="Baseline-M" style="fill:none;stroke:#27AAE1;opacity:1;stroke-width:0.5;" x1="263" x2="3036" y1="1126" y2="1126"/>
  <line id="Capline-M" style="fill:none;stroke:#27AAE1;opacity:1;stroke-width:0.5;" x1="263" x2="3036" y1="1055.54" y2="1055.54"/>
  <g id="H-reference" style="fill:#27AAE1;stroke:none;" transform="matrix(1 0 0 1 339 1556)">
   <path d="M0.976562 0L3.66211 0L12.9883-24.4629L45.752-24.4629L55.127 0L57.7637 0L30.6152-70.459L28.125-70.459ZM29.3457-67.1387L29.4434-67.1387L44.873-26.709L13.8672-26.709Z"/>
  </g>
  <line id="Baseline-L" style="fill:none;stroke:#27AAE1;opacity:1;stroke-width:0.5;" x1="263" x2="3036" y1="1556" y2="1556"/>
  <line id="Capline-L" style="fill:none;stroke:#27AAE1;opacity:1;stroke-width:0.5;" x1="263" x2="3036" y1="1485.54" y2="1485.54"/>
  <line id="left-margin" x1="1400.801456473214" x2="1400.801456473214" y1="1030.79" y2="1150.12" style="fill:none;stroke:#00AEEF;stroke-width:0.5;opacity:1.0;"/>
  <line id="right-margin" x1="1501.4585435267857" x2="1501.4585435267857" y1="1030.79" y2="1150.12" style="fill:none;stroke:#00AEEF;stroke-width:0.5;opacity:1.0;"/>
 </g>
 <g id="Symbols">
  <g id="Black-L" transform="matrix(1.0,0.0,0.0,1.0,2869.756380123514,1455.8463996547641)">  <path version="1.1" fill="#000000" stroke-linecap="butt" stroke-dasharray="none" fill-opacity="1" fill-rule="nonzero" stroke="none" stroke-opacity="1" stroke-miterlimit="4" stroke-linejoin="miter" xmlns:xlink="http://www.w3.org/1999/xlink" stroke-width="2px" d="M62.198,62.198L17.523,106.873L22.974,106.873C11.849,95.747,5.598,80.658,5.598,64.924C5.598,49.19,11.849,34.1,22.974,22.974L17.523,22.974L62.198,67.649L62.198,62.198ZM67.649,67.649L70.374,64.924L67.649,62.198L22.974,17.523L20.249,14.798L17.523,17.523C4.952,30.095,-2.111,47.145,-2.111,64.924C-2.111,82.702,4.952,99.752,17.523,112.324L20.249,115.049L22.974,112.324L67.649,67.649Z"/>
  <path stroke-linecap="butt" fill-rule="nonzero" version="1.1" stroke-opacity="1" fill-opacity="1" stroke-miterlimit="4" stroke-dasharray="none" xmlns:xlink="http://www.w3.org/1999/xlink" fill="#000000" stroke="none" stroke-linejoin="miter" stroke-width="2px" d="M64.924,64.924L20.249,20.249C32.097,8.4,48.167,1.744,64.924,1.744C81.68,1.744,97.75,8.4,109.598,20.249ZM64.924,64.924"/>
  <path stroke-width="2px" stroke-dasharray="none" xmlns:xlink="http://www.w3.org/1999/xlink" stroke-linejoin="miter" stroke-miterlimit="4" fill="#000000" version="1.1" stroke="none" fill-rule="nonzero" stroke-opacity="1" fill-opacity="1" stroke-linecap="butt" d="M67.649,62.198L22.974,17.523L22.974,22.974C34.1,11.849,49.19,5.598,64.924,5.598C80.658,5.598,95.747,11.849,106.873,22.974L106.873,17.523L62.198,62.198L67.649,62.198ZM62.198,67.649L64.924,70.374L67.649,67.649L112.324,22.974L115.049,20.249L112.324,17.523C99.752,4.952,82.702,-2.111,64.924,-2.111C47.145,-2.111,30.095,4.952,17.523,17.523L14.798,20.249L17.523,22.974L62.198,67.649Z"/>
  <path stroke-opacity="1" stroke-linejoin="miter" stroke-miterlimit="4" fill-opacity="1" fill-rule="nonzero" stroke-width="2px" fill="#000000" version="1.1" xmlns:xlink="http://www.w3.org/1999/xlink" stroke-dasharray="none" stroke="none" stroke-linecap="butt" d="M67.649,67.649L112.324,22.974L106.873,22.974C117.998,34.1,124.249,49.19,124.249,64.924C124.249,80.658,117.998,95.747,106.873,106.873L112.324,106.873L67.649,62.198L67.649,67.649ZM62.198,62.198L59.473,64.924L62.198,67.649L106.873,112.324L109.598,115.049L112.324,112.324C124.895,99.752,131.958,82.702,131.958,64.924C131.958,47.145,124.895,30.095,112.324,17.523L109.598,14.798L106.873,17.523L62.198,62.198Z"/>
  <path version="1.1" stroke-dasharray="none" stroke-linejoin="miter" stroke-miterlimit="4" stroke-linecap="butt" stroke-width="2px" xmlns:xlink="http://www.w3.org/1999/xlink" fill-opacity="1" fill-rule="nonzero" stroke="none" stroke-opacity="1" fill="#000000" d="M62.198,67.649L106.873,112.324L106.873,106.873C95.747,117.998,80.658,124.249,64.924,124.249C49.19,124.249,34.1,117.998,22.974,106.873L22.974,112.324L67.649,67.649L62.198,67.649ZM67.649,62.198L64.924,59.473L62.198,62.198L17.523,106.873L14.798,109.598L17.523,112.324C30.095,124.895,47.145,131.958,64.924,131.958C82.702,131.958,99.752,124.895,112.324,112.324L115.049,109.598L112.324,106.873L67.649,62.198Z"/>
</g>
  <g id="Heavy-L" transform="matrix(1.0,0.0,0.0,1.0,2573.046380123514,1455.8463996547641)">  <path stroke-miterlimit="4" fill-rule="nonzero" stroke-linecap="butt" version="1.1" xmlns:xlink="http://www.w3.org/1999/xlink" stroke-width="2px" stroke="none" fill="#000000" stroke-linejoin="miter" fill-opacity="1" stroke-opacity="1" stroke-dasharray="none" d="M62.496,62.496L17.822,107.171L22.676,107.171C11.471,95.966,5.176,80.769,5.176,64.924C5.176,49.078,11.471,33.881,22.676,22.676L17.822,22.676L62.496,67.351L62.496,62.496ZM67.351,67.351L69.778,64.924L67.351,62.496L22.676,17.822L20.249,15.395L17.822,17.822C5.33,30.314,-1.688,47.257,-1.688,64.924C-1.688,82.59,5.33,99.533,17.822,112.025L20.249,114.452L22.676,112.025L67.351,67.351Z"/>
  <path stroke-miterlimit="4" stroke-opacity="1" stroke-width="2px" fill="#000000" version="1.1" stroke-linejoin="miter" stroke-dasharray="none" fill-rule="nonzero" stroke-linecap="butt" stroke="none" fill-opacity="1" xmlns:xlink="http://www.w3.org/1999/xlink" d="M64.924,64.924L20.249,20.249C32.097,8.4,48.167,1.744,64.924,1.744C81.68,1.744,97.75,8.4,109.598,20.249ZM64.924,64.924"/>
  <path fill="#000000" stroke-dasharray="none" stroke-opacity="1" xmlns:xlink="http://www.w3.org/1999/xlink" version="1.1" fill-rule="nonzero" stroke-width="2px" stroke-linejoin="miter" stroke-miterlimit="4" fill-opacity="1" stroke="none" stroke-linecap="butt" d="M67.351,62.496L22.676,17.822L22.676,22.676C33.881,11.471,49.078,5.176,64.924,5.176C80.769,5.176,95.966,11.471,107.171,22.676L107.171,17.822L62.496,62.496L67.351,62.496ZM62.496,67.351L64.924,69.778L67.351,67.351L112.025,22.676L114.452,20.249L112.025,17.822C99.533,5.33,82.59,-1.688,64.924,-1.688C47.257,-1.688,30.314,5.33,17.822,17.822L15.395,20.249L17.822,22.676L62.496,67.351Z"/>
  <path version="1.1" stroke-linecap="butt" stroke="none" stroke-opacity="1" stroke-width="2px" stroke-linejoin="miter" xmlns:xlink="http://www.w3.org/1999/xlink" fill-rule="nonzero" fill="#000000" stroke-miterlimit="4" stroke-dasharray="none" fill-opacity="1" d="M67.351,67.351L112.025,22.676L107.171,22.676C118.376,33.881,124.671,49.078,124.671,64.924C124.671,80.769,118.376,95.966,107.171,107.171L112.025,107.171L67.351,62.496L67.351,67.351ZM62.496,62.496L60.069,64.924L62.496,67.351L107.171,112.025L109.598,114.452L112.025,112.025C124.517,99.533,131.536,82.59,131.536,64.924C131.536,47.257,124.517,30.314,112.025,17.822L109.598,15.395L107.171,17.822L62.496,62.496Z"/>
  <path version="1.1" stroke-linecap="butt" xmlns:xlink="http://www.w3.org/1999/xlink" fill-rule="nonzero" stroke-dasharray="none" fill-opacity="1" fill="#000000" stroke="none" stroke-width="2px" stroke-opacity="1" stroke-miterlimit="4" stroke-linejoin="miter" d="M62.496,67.351L107.171,112.025L107.171,107.171C95.966,118.376,80.769,124.671,64.924,124.671C49.078,124.671,33.881,118.376,22.676,107.171L22.676,112.025L67.351,67.351L62.496,67.351ZM67.351,62.496L64.924,60.069L62.496,62.496L17.822,107.171L15.395,109.598L17.822,112.025C30.314,124.517,47.257,131.536,64.924,131.536C82.59,131.536,99.533,124.517,112.025,112.025L114.452,109.598L112.025,107.171L67.351,62.496Z"/>
</g>
  <g id="Bold-L" transform="matrix(1.0,0.0,0.0,1.0,2276.336380123514,1455.8463996547641)">  <path stroke-dasharray="none" stroke-linecap="butt" xmlns:xlink="http://www.w3.org/1999/xlink" stroke-opacity="1" fill="#000000" version="1.1" stroke-miterlimit="4" stroke="none" fill-opacity="1" stroke-linejoin="miter" stroke-width="2px" fill-rule="nonzero" d="M62.795,62.795L18.12,107.47L22.377,107.47C11.093,96.186,4.754,80.881,4.754,64.924C4.754,48.966,11.093,33.661,22.377,22.377L18.12,22.377L62.795,67.052L62.795,62.795ZM67.052,67.052L69.181,64.924L67.052,62.795L22.377,18.12L20.249,15.992L18.12,18.12C5.707,30.533,-1.266,47.369,-1.266,64.924C-1.266,82.478,5.707,99.314,18.12,111.727L20.249,113.855L22.377,111.727L67.052,67.052Z"/>
  <path xmlns:xlink="http://www.w3.org/1999/xlink" stroke-opacity="1" stroke="none" stroke-width="2px" stroke-linecap="butt" stroke-miterlimit="4" stroke-dasharray="none" stroke-linejoin="miter" fill="#000000" fill-opacity="1" fill-rule="nonzero" version="1.1" d="M64.924,64.924L20.249,20.249C32.097,8.4,48.167,1.744,64.924,1.744C81.68,1.744,97.75,8.4,109.598,20.249ZM64.924,64.924"/>
  <path stroke="none" stroke-opacity="1" fill-rule="nonzero" version="1.1" stroke-miterlimit="4" xmlns:xlink="http://www.w3.org/1999/xlink" stroke-linecap="butt" stroke-linejoin="miter" fill-opacity="1" stroke-dasharray="none" stroke-width="2px" fill="#000000" d="M67.052,62.795L22.377,18.12L22.377,22.377C33.661,11.093,48.966,4.754,64.924,4.754C80.881,4.754,96.186,11.093,107.47,22.377L107.47,18.12L62.795,62.795L67.052,62.795ZM62.795,67.052L64.924,69.181L67.052,67.052L111.727,22.377L113.855,20.249L111.727,18.12C99.314,5.707,82.478,-1.266,64.924,-1.266C47.369,-1.266,30.533,5.707,18.12,18.12L15.992,20.249L18.12,22.377L62.795,67.052Z"/>
  <path fill-opacity="1" fill-rule="nonzero" fill="#000000" stroke-dasharray="none" stroke-linecap="butt" xmlns:xlink="http://www.w3.org/1999/xlink" stroke-miterlimit="4" stroke="none" stroke-width="2px" stroke-opacity="1" stroke-linejoin="miter" version="1.1" d="M67.052,67.052L111.727,22.377L107.47,22.377C118.754,33.661,125.093,48.966,125.093,64.924C125.093,80.881,118.754,96.186,107.47,107.47L111.727,107.47L67.052,62.795L67.052,67.052ZM62.795,62.795L60.666,64.924L62.795,67.052L107.47,111.727L109.598,113.855L111.727,111.727C124.14,99.314,131.113,82.478,131.113,64.924C131.113,47.369,124.14,30.533,111.727,18.12L109.598,15.992L107.47,18.12L62.795,62.795Z"/>
  <path fill-opacity="1" stroke-miterlimit="4" stroke="none" stroke-linecap="butt" stroke-width="2px" stroke-dasharray="none" version="1.1" xmlns:xlink="http://www.w3.org/1999/xlink" fill-rule="nonzero" stroke-opacity="1" fill="#000000" stroke-linejoin="miter" d="M62.795,67.052L107.47,111.727L107.47,107.47C96.186,118.754,80.881,125.093,64.924,125.093C48.966,125.093,33.661,118.754,22.377,107.47L22.377,111.727L67.052,67.052L62.795,67.052ZM67.052,62.795L64.924,60.666L62.795,62.795L18.12,107.47L15.992,109.598L18.12,111.727C30.533,124.14,47.369,131.113,64.924,131.113C82.478,131.113,99.314,124.14,111.727,111.727L113.855,109.598L111.727,107.47L67.052,62.795Z"/>
</g>
  <g id="Semibold-L" transform="matrix(1.0,0.0,0.0,1.0,1979.626380123514,1455.8463996547641)">  <path stroke-linecap="butt" version="1.1" stroke="none" stroke-width="2px" fill-opacity="1" stroke-linejoin="miter" fill-rule="nonzero" stroke-opacity="1" stroke-dasharray="none" xmlns:xlink="http://www.w3.org/1999/xlink" fill="#000000" stroke-miterlimit="4" d="M63.093,63.093L18.419,107.768L22.079,107.768C10.716,96.405,4.332,80.993,4.332,64.924C4.332,48.854,10.716,33.442,22.079,22.079L18.419,22.079L63.093,66.754L63.093,63.093ZM66.754,66.754L68.584,64.924L66.754,63.093L22.079,18.419L20.249,16.589L18.419,18.419C6.085,30.752,-0.844,47.481,-0.844,64.924C-0.844,82.366,6.085,99.095,18.419,111.428L20.249,113.259L22.079,111.428L66.754,66.754Z"/>
  <path fill="#000000" stroke-dasharray="none" fill-opacity="1" stroke-width="2px" version="1.1" stroke-linecap="butt" stroke-miterlimit="4" stroke="none" fill-rule="nonzero" xmlns:xlink="http://www.w3.org/1999/xlink" stroke-opacity="1" stroke-linejoin="miter" d="M64.924,64.924L20.249,20.249C32.097,8.4,48.167,1.744,64.924,1.744C81.68,1.744,97.75,8.4,109.598,20.249ZM64.924,64.924"/>
  <path xmlns:xlink="http://www.w3.org/1999/xlink" fill-rule="nonzero" stroke-miterlimit="4" version="1.1" stroke="none" stroke-opacity="1" stroke-dasharray="none" fill="#000000" stroke-width="2px" stroke-linecap="butt" stroke-linejoin="miter" fill-opacity="1" d="M66.754,63.093L22.079,18.419L22.079,22.079C33.442,10.716,48.854,4.332,64.924,4.332C80.993,4.332,96.405,10.716,107.768,22.079L107.768,18.419L63.093,63.093L66.754,63.093ZM63.093,66.754L64.924,68.584L66.754,66.754L111.428,22.079L113.259,20.249L111.428,18.419C99.095,6.085,82.366,-0.844,64.924,-0.844C47.481,-0.844,30.752,6.085,18.419,18.419L16.589,20.249L18.419,22.079L63.093,66.754Z"/>
  <path fill-rule="nonzero" fill-opacity="1" xmlns:xlink="http://www.w3.org/1999/xlink" stroke-dasharray="none" stroke-width="2px" stroke="none" stroke-linecap="butt" stroke-linejoin="miter" version="1.1" stroke-opacity="1" fill="#000000" stroke-miterlimit="4" d="M66.754,66.754L111.428,22.079L107.768,22.079C119.131,33.442,125.515,48.854,125.515,64.924C125.515,80.993,119.131,96.405,107.768,107.768L111.428,107.768L66.754,63.093L66.754,66.754ZM63.093,63.093L61.263,64.924L63.093,66.754L107.768,111.428L109.598,113.259L111.428,111.428C123.762,99.095,130.691,82.366,130.691,64.924C130.691,47.481,123.762,30.752,111.428,18.419L109.598,16.589L107.768,18.419L63.093,63.093Z"/>
  <path stroke-linecap="butt" stroke="none" stroke-opacity="1" fill="#000000" fill-opacity="1" stroke-linejoin="miter" stroke-miterlimit="4" fill-rule="nonzero" stroke-dasharray="none" xmlns:xlink="http://www.w3.org/1999/xlink" version="1.1" stroke-width="2px" d="M63.093,66.754L107.768,111.428L107.768,107.768C96.405,119.131,80.993,125.515,64.924,125.515C48.854,125.515,33.442,119.131,22.079,107.768L22.079,111.428L66.754,66.754L63.093,66.754ZM66.754,63.093L64.924,61.263L63.093,63.093L18.419,107.768L16.589,109.598L18.419,111.428C30.752,123.762,47.481,130.691,64.924,130.691C82.366,130.691,99.095,123.762,111.428,111.428L113.259,109.598L111.428,107.768L66.754,63.093Z"/>
</g>
  <g id="Medium-L" transform="matrix(1.0,0.0,0.0,1.0,1682.916380123514,1455.8463996547641)">  <path fill-rule="nonzero" fill-opacity="1" xmlns:xlink="http://www.w3.org/1999/xlink" stroke-opacity="1" stroke-dasharray="none" version="1.1" stroke-linejoin="miter" stroke="none" stroke-width="2px" fill="#000000" stroke-linecap="butt" stroke-miterlimit="4" d="M63.392,63.392L18.717,108.067L21.781,108.067C10.338,96.624,3.91,81.105,3.91,64.924C3.91,48.742,10.338,33.223,21.781,21.781L18.717,21.781L63.392,66.455L63.392,63.392ZM66.455,66.455L67.987,64.924L66.455,63.392L21.781,18.717L20.249,17.185L18.717,18.717C6.462,30.972,-0.422,47.593,-0.422,64.924C-0.422,82.254,6.462,98.875,18.717,111.13L20.249,112.662L21.781,111.13L66.455,66.455Z"/>
  <path stroke-width="2px" stroke-opacity="1" stroke-miterlimit="4" stroke-dasharray="none" xmlns:xlink="http://www.w3.org/1999/xlink" stroke-linejoin="miter" version="1.1" fill-rule="nonzero" stroke="none" fill="#000000" stroke-linecap="butt" fill-opacity="1" d="M64.924,64.924L20.249,20.249C32.097,8.4,48.167,1.744,64.924,1.744C81.68,1.744,97.75,8.4,109.598,20.249ZM64.924,64.924"/>
  <path stroke-linejoin="miter" stroke="none" stroke-width="2px" xmlns:xlink="http://www.w3.org/1999/xlink" fill-rule="nonzero" fill="#000000" fill-opacity="1" stroke-opacity="1" stroke-miterlimit="4" stroke-linecap="butt" stroke-dasharray="none" version="1.1" d="M66.455,63.392L21.781,18.717L21.781,21.781C33.223,10.338,48.742,3.91,64.924,3.91C81.105,3.91,96.624,10.338,108.067,21.781L108.067,18.717L63.392,63.392L66.455,63.392ZM63.392,66.455L64.924,67.987L66.455,66.455L111.13,21.781L112.662,20.249L111.13,18.717C98.875,6.462,82.254,-0.422,64.924,-0.422C47.593,-0.422,30.972,6.462,18.717,18.717L17.185,20.249L18.717,21.781L63.392,66.455Z"/>
  <path xmlns:xlink="http://www.w3.org/1999/xlink" stroke="none" stroke-width="2px" version="1.1" fill-opacity="1" stroke-miterlimit="4" stroke-opacity="1" stroke-linecap="butt" fill="#000000" stroke-linejoin="miter" fill-rule="nonzero" stroke-dasharray="none" d="M66.455,66.455L111.13,21.781L108.067,21.781C119.509,33.223,125.937,48.742,125.937,64.924C125.937,81.105,119.509,96.624,108.067,108.067L111.13,108.067L66.455,63.392L66.455,66.455ZM63.392,63.392L61.86,64.924L63.392,66.455L108.067,111.13L109.598,112.662L111.13,111.13C123.385,98.875,130.269,82.254,130.269,64.924C130.269,47.593,123.385,30.972,111.13,18.717L109.598,17.185L108.067,18.717L63.392,63.392Z"/>
  <path stroke-miterlimit="4" version="1.1" stroke-dasharray="none" stroke-linecap="butt" fill-opacity="1" fill="#000000" stroke="none" stroke-width="2px" stroke-linejoin="miter" xmlns:xlink="http://www.w3.org/1999/xlink" stroke-opacity="1" fill-rule="nonzero" d="M63.392,66.455L108.067,111.13L108.067,108.067C96.624,119.509,81.105,125.937,64.924,125.937C48.742,125.937,33.223,119.509,21.781,108.067L21.781,111.13L66.455,66.455L63.392,66.455ZM66.455,63.392L64.924,61.86L63.392,63.392L18.717,108.067L17.185,109.598L18.717,111.13C30.972,123.385,47.593,130.269,64.924,130.269C82.254,130.269,98.875,123.385,111.13,111.13L112.662,109.598L111.13,108.067L66.455,63.392Z"/>
</g>
  <g id="Regular-L" transform="matrix(1.0,0.0,0.0,1.0,1386.206380123514,1455.8463996547641)">  <path stroke-dasharray="none" stroke-width="2px" stroke-miterlimit="4" fill="#000000" stroke-linecap="butt" fill-rule="nonzero" stroke-linejoin="miter" fill-opacity="1" stroke-opacity="1" version="1.1" xmlns:xlink="http://www.w3.org/1999/xlink" stroke="none" d="M63.69,63.69L19.016,108.365L21.482,108.365C9.961,96.844,3.488,81.217,3.488,64.924C3.488,48.63,9.961,33.003,21.482,21.482L19.016,21.482L63.69,66.157L63.69,63.69ZM66.157,66.157L67.39,64.924L66.157,63.69L21.482,19.016L20.249,17.782L19.016,19.016C6.84,31.191,-0,47.705,-0,64.924C-0,82.142,6.84,98.656,19.016,110.831L20.249,112.065L21.482,110.831L66.157,66.157Z"/>
  <path fill="#000000" xmlns:xlink="http://www.w3.org/1999/xlink" stroke-dasharray="none" stroke-miterlimit="4" stroke-linecap="butt" stroke-width="2px" stroke-opacity="1" fill-opacity="1" version="1.1" stroke="none" fill-rule="nonzero" stroke-linejoin="miter" d="M64.924,64.924L20.249,20.249C32.097,8.4,48.167,1.744,64.924,1.744C81.68,1.744,97.75,8.4,109.598,20.249ZM64.924,64.924"/>
  <path fill="#000000" stroke-linejoin="miter" fill-opacity="1" xmlns:xlink="http://www.w3.org/1999/xlink" stroke="none" stroke-dasharray="none" stroke-miterlimit="4" version="1.1" stroke-width="2px" stroke-opacity="1" stroke-linecap="butt" fill-rule="nonzero" d="M66.157,63.69L21.482,19.016L21.482,21.482C33.003,9.961,48.63,3.488,64.924,3.488C81.217,3.488,96.844,9.961,108.365,21.482L108.365,19.016L63.69,63.69L66.157,63.69ZM63.69,66.157L64.924,67.39L66.157,66.157L110.831,21.482L112.065,20.249L110.831,19.016C98.656,6.84,82.142,-0,64.924,-0C47.705,-0,31.191,6.84,19.016,19.016L17.782,20.249L19.016,21.482L63.69,66.157Z"/>
  <path stroke-opacity="1" stroke-linecap="butt" fill-opacity="1" stroke-linejoin="miter" fill="#000000" fill-rule="nonzero" version="1.1" stroke="none" xmlns:xlink="http://www.w3.org/1999/xlink" stroke-dasharray="none" stroke-miterlimit="4" stroke-width="2px" d="M66.157,66.157L110.831,21.482L108.365,21.482C119.886,33.003,126.359,48.63,126.359,64.924C126.359,81.217,119.886,96.844,108.365,108.365L110.831,108.365L66.157,63.69L66.157,66.157ZM63.69,63.69L62.457,64.924L63.69,66.157L108.365,110.831L109.598,112.065L110.831,110.831C123.007,98.656,129.847,82.142,129.847,64.924C129.847,47.705,123.007,31.191,110.831,19.016L109.598,17.782L108.365,19.016L63.69,63.69Z"/>
  <path stroke-width="2px" xmlns:xlink="http://www.w3.org/1999/xlink" stroke-dasharray="none" version="1.1" stroke-linejoin="miter" stroke="none" stroke-opacity="1" stroke-linecap="butt" stroke-miterlimit="4" fill-opacity="1" fill-rule="nonzero" fill="#000000" d="M63.69,66.157L108.365,110.831L108.365,108.365C96.844,119.886,81.217,126.359,64.924,126.359C48.63,126.359,33.003,119.886,21.482,108.365L21.482,110.831L66.157,66.157L63.69,66.157ZM66.157,63.69L64.924,62.457L63.69,63.69L19.016,108.365L17.782,109.598L19.016,110.831C31.191,123.007,47.705,129.847,64.924,129.847C82.142,129.847,98.656,123.007,110.831,110.831L112.065,109.598L110.831,108.365L66.157,63.69Z"/>
</g>
  <g id="Light-L" transform="matrix(1.0,0.0,0.0,1.0,1089.4963801235142,1455.8463996547641)">  <path stroke-dasharray="none" stroke-opacity="1" stroke-width="2px" version="1.1" stroke-miterlimit="4" stroke-linejoin="miter" fill-opacity="1" stroke="none" xmlns:xlink="http://www.w3.org/1999/xlink" fill="#000000" stroke-linecap="butt" fill-rule="nonzero" d="M63.896,63.896L19.221,108.571L21.277,108.571C9.701,96.995,3.197,81.294,3.197,64.924C3.197,48.553,9.701,32.852,21.277,21.277L19.221,21.277L63.896,65.951L63.896,63.896ZM65.951,65.951L66.979,64.924L65.951,63.896L21.277,19.221L20.249,18.193L19.221,19.221C7.1,31.342,0.29,47.782,0.29,64.924C0.29,82.065,7.1,98.505,19.221,110.626L20.249,111.654L21.277,110.626L65.951,65.951Z"/>
  <path stroke-dasharray="none" xmlns:xlink="http://www.w3.org/1999/xlink" stroke="none" stroke-linejoin="miter" stroke-opacity="1" stroke-miterlimit="4" stroke-linecap="butt" fill-rule="nonzero" stroke-width="2px" version="1.1" fill-opacity="1" fill="#000000" d="M64.924,64.924L20.249,20.249C32.097,8.4,48.167,1.744,64.924,1.744C81.68,1.744,97.75,8.4,109.598,20.249ZM64.924,64.924"/>
  <path stroke-miterlimit="4" xmlns:xlink="http://www.w3.org/1999/xlink" stroke-linecap="butt" stroke-width="2px" stroke="none" fill-opacity="1" stroke-linejoin="miter" fill-rule="nonzero" stroke-dasharray="none" stroke-opacity="1" fill="#000000" version="1.1" d="M65.951,63.896L21.277,19.221L21.277,21.277C32.852,9.701,48.553,3.197,64.924,3.197C81.294,3.197,96.995,9.701,108.571,21.277L108.571,19.221L63.896,63.896L65.951,63.896ZM63.896,65.951L64.924,66.979L65.951,65.951L110.626,21.277L111.654,20.249L110.626,19.221C98.505,7.1,82.065,0.29,64.924,0.29C47.782,0.29,31.342,7.1,19.221,19.221L18.193,20.249L19.221,21.277L63.896,65.951Z"/>
  <path version="1.1" stroke-width="2px" stroke-opacity="1" stroke-linejoin="miter" fill-opacity="1" stroke-miterlimit="4" stroke-dasharray="none" fill-rule="nonzero" stroke-linecap="butt" stroke="none" xmlns:xlink="http://www.w3.org/1999/xlink" fill="#000000" d="M65.951,65.951L110.626,21.277L108.571,21.277C120.146,32.852,126.65,48.553,126.65,64.924C126.65,81.294,120.146,96.995,108.571,108.571L110.626,108.571L65.951,63.896L65.951,65.951ZM63.896,63.896L62.868,64.924L63.896,65.951L108.571,110.626L109.598,111.654L110.626,110.626C122.747,98.505,129.557,82.065,129.557,64.924C129.557,47.782,122.747,31.342,110.626,19.221L109.598,18.193L108.571,19.221L63.896,63.896Z"/>
  <path stroke-linejoin="miter" stroke-linecap="butt" fill="#000000" xmlns:xlink="http://www.w3.org/1999/xlink" stroke-dasharray="none" version="1.1" fill-rule="nonzero" stroke-miterlimit="4" stroke-width="2px" stroke="none" stroke-opacity="1" fill-opacity="1" d="M63.896,65.951L108.571,110.626L108.571,108.571C96.995,120.146,81.294,126.65,64.924,126.65C48.553,126.65,32.852,120.146,21.277,108.571L21.277,110.626L65.951,65.951L63.896,65.951ZM65.951,63.896L64.924,62.868L63.896,63.896L19.221,108.571L18.193,109.598L19.221,110.626C31.342,122.747,47.782,129.557,64.924,129.557C82.065,129.557,98.505,122.747,110.626,110.626L111.654,109.598L110.626,108.571L65.951,63.896Z"/>
</g>
  <g id="Thin-L" transform="matrix(1.0,0.0,0.0,1.0,792.7863801235143,1455.8463996547641)">  <path stroke-opacity="1" stroke-linecap="butt" stroke-linejoin="miter" stroke-dasharray="none" stroke-miterlimit="4" stroke-width="2px" fill-rule="nonzero" version="1.1" stroke="none" fill-opacity="1" xmlns:xlink="http://www.w3.org/1999/xlink" fill="#000000" d="M64.101,64.101L19.427,108.776L21.071,108.776C9.441,97.146,2.907,81.371,2.907,64.924C2.907,48.476,9.441,32.701,21.071,21.071L19.427,21.071L64.101,65.746L64.101,64.101ZM65.746,65.746L66.568,64.924L65.746,64.101L21.071,19.427L20.249,18.604L19.427,19.427C7.36,31.493,0.581,47.859,0.581,64.924C0.581,81.988,7.36,98.354,19.427,110.42L20.249,111.243L21.071,110.42L65.746,65.746Z"/>
  <path fill-opacity="1" stroke-linecap="butt" stroke-dasharray="none" stroke-linejoin="miter" stroke-width="2px" fill="#000000" stroke="none" fill-rule="nonzero" stroke-opacity="1" version="1.1" xmlns:xlink="http://www.w3.org/1999/xlink" stroke-miterlimit="4" d="M64.924,64.924L20.249,20.249C32.097,8.4,48.167,1.744,64.924,1.744C81.68,1.744,97.75,8.4,109.598,20.249ZM64.924,64.924"/>
  <path version="1.1" stroke="none" fill-rule="nonzero" stroke-linejoin="miter" stroke-opacity="1" stroke-miterlimit="4" stroke-width="2px" stroke-linecap="butt" xmlns:xlink="http://www.w3.org/1999/xlink" stroke-dasharray="none" fill="#000000" fill-opacity="1" d="M65.746,64.101L21.071,19.427L21.071,21.071C32.701,9.441,48.476,2.907,64.924,2.907C81.371,2.907,97.146,9.441,108.776,21.071L108.776,19.427L64.101,64.101L65.746,64.101ZM64.101,65.746L64.924,66.568L65.746,65.746L110.42,21.071L111.243,20.249L110.42,19.427C98.354,7.36,81.988,0.581,64.924,0.581C47.859,0.581,31.493,7.36,19.427,19.427L18.604,20.249L19.427,21.071L64.101,65.746Z"/>
  <path stroke-linejoin="miter" version="1.1" stroke-width="2px" stroke-miterlimit="4" xmlns:xlink="http://www.w3.org/1999/xlink" stroke-linecap="butt" fill-rule="nonzero" stroke="none" fill-opacity="1" stroke-dasharray="none" stroke-opacity="1" fill="#000000" d="M65.746,65.746L110.42,21.071L108.776,21.071C120.407,32.701,126.94,48.476,126.94,64.924C126.94,81.371,120.407,97.146,108.776,108.776L110.42,108.776L65.746,64.101L65.746,65.746ZM64.101,64.101L63.279,64.924L64.101,65.746L108.776,110.42L109.598,111.243L110.42,110.42C122.487,98.354,129.266,81.988,129.266,64.924C129.266,47.859,122.487,31.493,110.42,19.427L109.598,18.604L108.776,19.427L64.101,64.101Z"/>
  <path stroke-width="2px" version="1.1" stroke-opacity="1" stroke-linecap="butt" stroke-dasharray="none" xmlns:xlink="http://www.w3.org/1999/xlink" stroke="none" stroke-miterlimit="4" fill="#000000" stroke-linejoin="miter" fill-rule="nonzero" fill-opacity="1" d="M64.101,65.746L108.776,110.42L108.776,108.776C97.146,120.407,81.371,126.94,64.924,126.94C48.476,126.94,32.701,120.407,21.071,108.776L21.071,110.42L65.746,65.746L64.101,65.746ZM65.746,64.101L64.924,63.279L64.101,64.101L19.427,108.776L18.604,109.598L19.427,110.42C31.493,122.487,47.859,129.266,64.924,129.266C81.988,129.266,98.354,122.487,110.42,110.42L111.243,109.598L110.42,108.776L65.746,64.101Z"/>
</g>
  <g id="Ultralight-L" transform="matrix(1.0,0.0,0.0,1.0,496.0763801235141,1455.8463996547641)">  <path fill-rule="nonzero" stroke-dasharray="none" stroke="none" xmlns:xlink="http://www.w3.org/1999/xlink" fill-opacity="1" stroke-linecap="butt" version="1.1" stroke-opacity="1" stroke-miterlimit="4" stroke-linejoin="miter" fill="#000000" stroke-width="2px" d="M64.307,64.307L19.632,108.982L20.865,108.982C9.18,97.297,2.616,81.449,2.616,64.924C2.616,48.399,9.18,32.55,20.865,20.865L19.632,20.865L64.307,65.54L64.307,64.307ZM65.54,65.54L66.157,64.924L65.54,64.307L20.865,19.632L20.249,19.016L19.632,19.632C7.62,31.644,0.872,47.936,0.872,64.924C0.872,81.911,7.62,98.203,19.632,110.215L20.249,110.831L20.865,110.215L65.54,65.54Z"/>
  <path stroke-linejoin="miter" stroke-miterlimit="4" xmlns:xlink="http://www.w3.org/1999/xlink" stroke-linecap="butt" version="1.1" stroke-opacity="1" fill-opacity="1" stroke-dasharray="none" stroke="none" stroke-width="2px" fill="#000000" fill-rule="nonzero" d="M64.924,64.924L20.249,20.249C32.097,8.4,48.167,1.744,64.924,1.744C81.68,1.744,97.75,8.4,109.598,20.249ZM64.924,64.924"/>
  <path stroke-linecap="butt" stroke-width="2px" stroke="none" version="1.1" stroke-linejoin="miter" fill="#000000" stroke-miterlimit="4" fill-opacity="1" fill-rule="nonzero" xmlns:xlink="http://www.w3.org/1999/xlink" stroke-opacity="1" stroke-dasharray="none" d="M65.54,64.307L20.865,19.632L20.865,20.865C32.55,9.18,48.399,2.616,64.924,2.616C81.449,2.616,97.297,9.18,108.982,20.865L108.982,19.632L64.307,64.307L65.54,64.307ZM64.307,65.54L64.924,66.157L65.54,65.54L110.215,20.865L110.831,20.249L110.215,19.632C98.203,7.62,81.911,0.872,64.924,0.872C47.936,0.872,31.644,7.62,19.632,19.632L19.016,20.249L19.632,20.865L64.307,65.54Z"/>
  <path stroke-miterlimit="4" stroke-width="2px" stroke-linecap="butt" fill-opacity="1" fill-rule="nonzero" version="1.1" stroke="none" stroke-dasharray="none" fill="#000000" xmlns:xlink="http://www.w3.org/1999/xlink" stroke-linejoin="miter" stroke-opacity="1" d="M65.54,65.54L110.215,20.865L108.982,20.865C120.667,32.55,127.231,48.399,127.231,64.924C127.231,81.449,120.667,97.297,108.982,108.982L110.215,108.982L65.54,64.307L65.54,65.54ZM64.307,64.307L63.69,64.924L64.307,65.54L108.982,110.215L109.598,110.831L110.215,110.215C122.227,98.203,128.975,81.911,128.975,64.924C128.975,47.936,122.227,31.644,110.215,19.632L109.598,19.016L108.982,19.632L64.307,64.307Z"/>
  <path stroke-width="2px" stroke="none" xmlns:xlink="http://www.w3.org/1999/xlink" stroke-opacity="1" stroke-miterlimit="4" stroke-linecap="butt" stroke-dasharray="none" stroke-linejoin="miter" fill-rule="nonzero" fill="#000000" version="1.1" fill-opacity="1" d="M64.307,65.54L108.982,110.215L108.982,108.982C97.297,120.667,81.449,127.231,64.924,127.231C48.399,127.231,32.55,120.667,20.865,108.982L20.865,110.215L65.54,65.54L64.307,65.54ZM65.54,64.307L64.924,63.69L64.307,64.307L19.632,108.982L19.016,109.598L19.632,110.215C31.644,122.227,47.936,128.975,64.924,128.975C81.911,128.975,98.203,122.227,110.215,110.215L110.831,109.598L110.215,108.982L65.54,64.307Z"/>
</g>
  <g id="Black-M" transform="matrix(1.0,0.0,0.0,1.0,2884.3516124988478,1040.4416320300982)">  <path version="1.1" fill="#000000" stroke-linecap="butt" stroke-dasharray="none" fill-opacity="1" fill-rule="nonzero" stroke="none" stroke-opacity="1" stroke-miterlimit="4" stroke-linejoin="miter" xmlns:xlink="http://www.w3.org/1999/xlink" stroke-width="2px" d="M48.216,48.216L13.584,82.847L17.81,82.847C9.185,74.223,4.34,62.525,4.34,50.328C4.34,38.131,9.185,26.434,17.81,17.81L13.584,17.81L48.216,52.441L48.216,48.216ZM52.441,52.441L54.554,50.328L52.441,48.216L17.81,13.584L15.697,11.471L13.584,13.584C3.839,23.329,-1.636,36.546,-1.636,50.328C-1.636,64.11,3.839,77.327,13.584,87.073L15.697,89.185L17.81,87.073L52.441,52.441Z"/>
  <path stroke-linecap="butt" fill-rule="nonzero" version="1.1" stroke-opacity="1" fill-opacity="1" stroke-miterlimit="4" stroke-dasharray="none" xmlns:xlink="http://www.w3.org/1999/xlink" fill="#000000" stroke="none" stroke-linejoin="miter" stroke-width="2px" d="M50.328,50.328L15.697,15.697C24.882,6.512,37.339,1.352,50.328,1.352C63.318,1.352,75.775,6.512,84.96,15.697ZM50.328,50.328"/>
  <path stroke-width="2px" stroke-dasharray="none" xmlns:xlink="http://www.w3.org/1999/xlink" stroke-linejoin="miter" stroke-miterlimit="4" fill="#000000" version="1.1" stroke="none" fill-rule="nonzero" stroke-opacity="1" fill-opacity="1" stroke-linecap="butt" d="M52.441,48.216L17.81,13.584L17.81,17.81C26.434,9.185,38.131,4.34,50.328,4.34C62.525,4.34,74.223,9.185,82.847,17.81L82.847,13.584L48.216,48.216L52.441,48.216ZM48.216,52.441L50.328,54.554L52.441,52.441L87.073,17.81L89.185,15.697L87.073,13.584C77.327,3.839,64.11,-1.636,50.328,-1.636C36.546,-1.636,23.329,3.839,13.584,13.584L11.471,15.697L13.584,17.81L48.216,52.441Z"/>
  <path stroke-opacity="1" stroke-linejoin="miter" stroke-miterlimit="4" fill-opacity="1" fill-rule="nonzero" stroke-width="2px" fill="#000000" version="1.1" xmlns:xlink="http://www.w3.org/1999/xlink" stroke-dasharray="none" stroke="none" stroke-linecap="butt" d="M52.441,52.441L87.073,17.81L82.847,17.81C91.472,26.434,96.317,38.131,96.317,50.328C96.317,62.525,91.472,74.223,82.847,82.847L87.073,82.847L52.441,48.216L52.441,52.441ZM48.216,48.216L46.103,50.328L48.216,52.441L82.847,87.073L84.96,89.185L87.073,87.073C96.818,77.327,102.293,64.11,102.293,50.328C102.293,36.546,96.818,23.329,87.073,13.584L84.96,11.471L82.847,13.584L48.216,48.216Z"/>
  <path version="1.1" stroke-dasharray="none" stroke-linejoin="miter" stroke-miterlimit="4" stroke-linecap="butt" stroke-width="2px" xmlns:xlink="http://www.w3.org/1999/xlink" fill-opacity="1" fill-rule="nonzero" stroke="none" stroke-opacity="1" fill="#000000" d="M48.216,52.441L82.847,87.073L82.847,82.847C74.223,91.472,62.525,96.317,50.328,96.317C38.131,96.317,26.434,91.472,17.81,82.847L17.81,87.073L52.441,52.441L48.216,52.441ZM52.441,48.216L50.328,46.103L48.216,48.216L13.584,82.847L11.471,84.96L13.584,87.073C23.329,96.818,36.546,102.293,50.328,102.293C64.11,102.293,77.327,96.818,87.073,87.073L89.185,84.96L87.073,82.847L52.441,48.216Z"/>
</g>
  <g id="Heavy-M" transform="matrix(1.0,0.0,0.0,1.0,2587.6416124988477,1040.4416320300982)">  <path stroke-miterlimit="4" fill-rule="nonzero" stroke-linecap="butt" version="1.1" xmlns:xlink="http://www.w3.org/1999/xlink" stroke-width="2px" stroke="none" fill="#000000" stroke-linejoin="miter" fill-opacity="1" stroke-opacity="1" stroke-dasharray="none" d="M48.447,48.447L13.815,83.078L17.578,83.078C8.892,74.393,4.013,62.612,4.013,50.328C4.013,38.045,8.892,26.264,17.578,17.578L13.815,17.578L48.447,52.21L48.447,48.447ZM52.21,52.21L54.091,50.328L52.21,48.447L17.578,13.815L15.697,11.934L13.815,13.815C4.131,23.499,-1.309,36.633,-1.309,50.328C-1.309,64.023,4.131,77.157,13.815,86.841L15.697,88.723L17.578,86.841L52.21,52.21Z"/>
  <path stroke-miterlimit="4" stroke-opacity="1" stroke-width="2px" fill="#000000" version="1.1" stroke-linejoin="miter" stroke-dasharray="none" fill-rule="nonzero" stroke-linecap="butt" stroke="none" fill-opacity="1" xmlns:xlink="http://www.w3.org/1999/xlink" d="M50.328,50.328L15.697,15.697C24.882,6.512,37.339,1.352,50.328,1.352C63.318,1.352,75.775,6.512,84.96,15.697ZM50.328,50.328"/>
  <path fill="#000000" stroke-dasharray="none" stroke-opacity="1" xmlns:xlink="http://www.w3.org/1999/xlink" version="1.1" fill-rule="nonzero" stroke-width="2px" stroke-linejoin="miter" stroke-miterlimit="4" fill-opacity="1" stroke="none" stroke-linecap="butt" d="M52.21,48.447L17.578,13.815L17.578,17.578C26.264,8.892,38.045,4.013,50.328,4.013C62.612,4.013,74.393,8.892,83.078,17.578L83.078,13.815L48.447,48.447L52.21,48.447ZM48.447,52.21L50.328,54.091L52.21,52.21L86.841,17.578L88.723,15.697L86.841,13.815C77.157,4.131,64.023,-1.309,50.328,-1.309C36.633,-1.309,23.499,4.131,13.815,13.815L11.934,15.697L13.815,17.578L48.447,52.21Z"/>
  <path version="1.1" stroke-linecap="butt" stroke="none" stroke-opacity="1" stroke-width="2px" stroke-linejoin="miter" xmlns:xlink="http://www.w3.org/1999/xlink" fill-rule="nonzero" fill="#000000" stroke-miterlimit="4" stroke-dasharray="none" fill-opacity="1" d="M52.21,52.21L86.841,17.578L83.078,17.578C91.764,26.264,96.644,38.045,96.644,50.328C96.644,62.612,91.764,74.393,83.078,83.078L86.841,83.078L52.21,48.447L52.21,52.21ZM48.447,48.447L46.565,50.328L48.447,52.21L83.078,86.841L84.96,88.723L86.841,86.841C96.525,77.157,101.966,64.023,101.966,50.328C101.966,36.633,96.525,23.499,86.841,13.815L84.96,11.934L83.078,13.815L48.447,48.447Z"/>
  <path version="1.1" stroke-linecap="butt" xmlns:xlink="http://www.w3.org/1999/xlink" fill-rule="nonzero" stroke-dasharray="none" fill-opacity="1" fill="#000000" stroke="none" stroke-width="2px" stroke-opacity="1" stroke-miterlimit="4" stroke-linejoin="miter" d="M48.447,52.21L83.078,86.841L83.078,83.078C74.393,91.764,62.612,96.644,50.328,96.644C38.045,96.644,26.264,91.764,17.578,83.078L17.578,86.841L52.21,52.21L48.447,52.21ZM52.21,48.447L50.328,46.565L48.447,48.447L13.815,83.078L11.934,84.96L13.815,86.841C23.499,96.525,36.633,101.966,50.328,101.966C64.023,101.966,77.157,96.525,86.841,86.841L88.723,84.96L86.841,83.078L52.21,48.447Z"/>
</g>
  <g id="Bold-M" transform="matrix(1.0,0.0,0.0,1.0,2290.9316124988477,1040.4416320300982)">  <path stroke-dasharray="none" stroke-linecap="butt" xmlns:xlink="http://www.w3.org/1999/xlink" stroke-opacity="1" fill="#000000" version="1.1" stroke-miterlimit="4" stroke="none" fill-opacity="1" stroke-linejoin="miter" stroke-width="2px" fill-rule="nonzero" d="M48.678,48.678L14.047,83.31L17.347,83.31C8.6,74.563,3.685,62.699,3.685,50.328C3.685,37.958,8.6,26.094,17.347,17.347L14.047,17.347L48.678,51.978L48.678,48.678ZM51.978,51.978L53.628,50.328L51.978,48.678L17.347,14.047L15.697,12.397L14.047,14.047C4.424,23.669,-0.982,36.72,-0.982,50.328C-0.982,63.937,4.424,76.987,14.047,86.61L15.697,88.26L17.347,86.61L51.978,51.978Z"/>
  <path xmlns:xlink="http://www.w3.org/1999/xlink" stroke-opacity="1" stroke="none" stroke-width="2px" stroke-linecap="butt" stroke-miterlimit="4" stroke-dasharray="none" stroke-linejoin="miter" fill="#000000" fill-opacity="1" fill-rule="nonzero" version="1.1" d="M50.328,50.328L15.697,15.697C24.882,6.512,37.339,1.352,50.328,1.352C63.318,1.352,75.775,6.512,84.96,15.697ZM50.328,50.328"/>
  <path stroke="none" stroke-opacity="1" fill-rule="nonzero" version="1.1" stroke-miterlimit="4" xmlns:xlink="http://www.w3.org/1999/xlink" stroke-linecap="butt" stroke-linejoin="miter" fill-opacity="1" stroke-dasharray="none" stroke-width="2px" fill="#000000" d="M51.978,48.678L17.347,14.047L17.347,17.347C26.094,8.6,37.958,3.685,50.328,3.685C62.699,3.685,74.563,8.6,83.31,17.347L83.31,14.047L48.678,48.678L51.978,48.678ZM48.678,51.978L50.328,53.628L51.978,51.978L86.61,17.347L88.26,15.697L86.61,14.047C76.987,4.424,63.937,-0.982,50.328,-0.982C36.72,-0.982,23.669,4.424,14.047,14.047L12.397,15.697L14.047,17.347L48.678,51.978Z"/>
  <path fill-opacity="1" fill-rule="nonzero" fill="#000000" stroke-dasharray="none" stroke-linecap="butt" xmlns:xlink="http://www.w3.org/1999/xlink" stroke-miterlimit="4" stroke="none" stroke-width="2px" stroke-opacity="1" stroke-linejoin="miter" version="1.1" d="M51.978,51.978L86.61,17.347L83.31,17.347C92.057,26.094,96.971,37.958,96.971,50.328C96.971,62.699,92.057,74.563,83.31,83.31L86.61,83.31L51.978,48.678L51.978,51.978ZM48.678,48.678L47.028,50.328L48.678,51.978L83.31,86.61L84.96,88.26L86.61,86.61C96.232,76.987,101.638,63.937,101.638,50.328C101.638,36.72,96.232,23.669,86.61,14.047L84.96,12.397L83.31,14.047L48.678,48.678Z"/>
  <path fill-opacity="1" stroke-miterlimit="4" stroke="none" stroke-linecap="butt" stroke-width="2px" stroke-dasharray="none" version="1.1" xmlns:xlink="http://www.w3.org/1999/xlink" fill-rule="nonzero" stroke-opacity="1" fill="#000000" stroke-linejoin="miter" d="M48.678,51.978L83.31,86.61L83.31,83.31C74.563,92.057,62.699,96.971,50.328,96.971C37.958,96.971,26.094,92.057,17.347,83.31L17.347,86.61L51.978,51.978L48.678,51.978ZM51.978,48.678L50.328,47.028L48.678,48.678L14.047,83.31L12.397,84.96L14.047,86.61C23.669,96.232,36.72,101.638,50.328,101.638C63.937,101.638,76.987,96.232,86.61,86.61L88.26,84.96L86.61,83.31L51.978,48.678Z"/>
</g>
  <g id="Semibold-M" transform="matrix(1.0,0.0,0.0,1.0,1994.2216124988481,1040.4416320300982)">  <path stroke-linecap="butt" version="1.1" stroke="none" stroke-width="2px" fill-opacity="1" stroke-linejoin="miter" fill-rule="nonzero" stroke-opacity="1" stroke-dasharray="none" xmlns:xlink="http://www.w3.org/1999/xlink" fill="#000000" stroke-miterlimit="4" d="M48.91,48.91L14.278,83.541L17.115,83.541C8.307,74.733,3.358,62.786,3.358,50.328C3.358,37.871,8.307,25.924,17.115,17.115L14.278,17.115L48.91,51.747L48.91,48.91ZM51.747,51.747L53.166,50.328L51.747,48.91L17.115,14.278L15.697,12.859L14.278,14.278C4.717,23.839,-0.655,36.807,-0.655,50.328C-0.655,63.85,4.717,76.817,14.278,86.379L15.697,87.797L17.115,86.379L51.747,51.747Z"/>
  <path fill="#000000" stroke-dasharray="none" fill-opacity="1" stroke-width="2px" version="1.1" stroke-linecap="butt" stroke-miterlimit="4" stroke="none" fill-rule="nonzero" xmlns:xlink="http://www.w3.org/1999/xlink" stroke-opacity="1" stroke-linejoin="miter" d="M50.328,50.328L15.697,15.697C24.882,6.512,37.339,1.352,50.328,1.352C63.318,1.352,75.775,6.512,84.96,15.697ZM50.328,50.328"/>
  <path xmlns:xlink="http://www.w3.org/1999/xlink" fill-rule="nonzero" stroke-miterlimit="4" version="1.1" stroke="none" stroke-opacity="1" stroke-dasharray="none" fill="#000000" stroke-width="2px" stroke-linecap="butt" stroke-linejoin="miter" fill-opacity="1" d="M51.747,48.91L17.115,14.278L17.115,17.115C25.924,8.307,37.871,3.358,50.328,3.358C62.786,3.358,74.733,8.307,83.541,17.115L83.541,14.278L48.91,48.91L51.747,48.91ZM48.91,51.747L50.328,53.166L51.747,51.747L86.379,17.115L87.797,15.697L86.379,14.278C76.817,4.717,63.85,-0.655,50.328,-0.655C36.807,-0.655,23.839,4.717,14.278,14.278L12.859,15.697L14.278,17.115L48.91,51.747Z"/>
  <path fill-rule="nonzero" fill-opacity="1" xmlns:xlink="http://www.w3.org/1999/xlink" stroke-dasharray="none" stroke-width="2px" stroke="none" stroke-linecap="butt" stroke-linejoin="miter" version="1.1" stroke-opacity="1" fill="#000000" stroke-miterlimit="4" d="M51.747,51.747L86.379,17.115L83.541,17.115C92.35,25.924,97.298,37.871,97.298,50.328C97.298,62.786,92.35,74.733,83.541,83.541L86.379,83.541L51.747,48.91L51.747,51.747ZM48.91,48.91L47.491,50.328L48.91,51.747L83.541,86.379L84.96,87.797L86.379,86.379C95.94,76.817,101.311,63.85,101.311,50.328C101.311,36.807,95.94,23.839,86.379,14.278L84.96,12.859L83.541,14.278L48.91,48.91Z"/>
  <path stroke-linecap="butt" stroke="none" stroke-opacity="1" fill="#000000" fill-opacity="1" stroke-linejoin="miter" stroke-miterlimit="4" fill-rule="nonzero" stroke-dasharray="none" xmlns:xlink="http://www.w3.org/1999/xlink" version="1.1" stroke-width="2px" d="M48.91,51.747L83.541,86.379L83.541,83.541C74.733,92.35,62.786,97.298,50.328,97.298C37.871,97.298,25.924,92.35,17.115,83.541L17.115,86.379L51.747,51.747L48.91,51.747ZM51.747,48.91L50.328,47.491L48.91,48.91L14.278,83.541L12.859,84.96L14.278,86.379C23.839,95.94,36.807,101.311,50.328,101.311C63.85,101.311,76.817,95.94,86.379,86.379L87.797,84.96L86.379,83.541L51.747,48.91Z"/>
</g>
  <g id="Medium-M" transform="matrix(1.0,0.0,0.0,1.0,1697.511612498848,1040.4416320300982)">  <path fill-rule="nonzero" fill-opacity="1" xmlns:xlink="http://www.w3.org/1999/xlink" stroke-opacity="1" stroke-dasharray="none" version="1.1" stroke-linejoin="miter" stroke="none" stroke-width="2px" fill="#000000" stroke-linecap="butt" stroke-miterlimit="4" d="M49.141,49.141L14.509,83.773L16.884,83.772C8.014,74.903,3.031,62.872,3.031,50.328C3.031,37.784,8.014,25.754,16.884,16.884L14.509,16.884L49.141,51.516L49.141,49.141ZM51.516,51.516L52.703,50.328L51.516,49.141L16.884,14.509L15.697,13.322L14.509,14.509C5.01,24.009,-0.327,36.894,-0.327,50.328C-0.327,63.763,5.01,76.647,14.509,86.147L15.697,87.335L16.884,86.147L51.516,51.516Z"/>
  <path stroke-width="2px" stroke-opacity="1" stroke-miterlimit="4" stroke-dasharray="none" xmlns:xlink="http://www.w3.org/1999/xlink" stroke-linejoin="miter" version="1.1" fill-rule="nonzero" stroke="none" fill="#000000" stroke-linecap="butt" fill-opacity="1" d="M50.328,50.328L15.697,15.697C24.882,6.512,37.339,1.352,50.328,1.352C63.318,1.352,75.775,6.512,84.96,15.697ZM50.328,50.328"/>
  <path stroke-linejoin="miter" stroke="none" stroke-width="2px" xmlns:xlink="http://www.w3.org/1999/xlink" fill-rule="nonzero" fill="#000000" fill-opacity="1" stroke-opacity="1" stroke-miterlimit="4" stroke-linecap="butt" stroke-dasharray="none" version="1.1" d="M51.516,49.141L16.884,14.509L16.884,16.884C25.754,8.014,37.784,3.031,50.328,3.031C62.872,3.031,74.903,8.014,83.772,16.884L83.773,14.509L49.141,49.141L51.516,49.141ZM49.141,51.516L50.328,52.703L51.516,51.516L86.147,16.884L87.335,15.697L86.147,14.509C76.647,5.01,63.763,-0.327,50.328,-0.327C36.894,-0.327,24.009,5.01,14.509,14.509L13.322,15.697L14.509,16.884L49.141,51.516Z"/>
  <path xmlns:xlink="http://www.w3.org/1999/xlink" stroke="none" stroke-width="2px" version="1.1" fill-opacity="1" stroke-miterlimit="4" stroke-opacity="1" stroke-linecap="butt" fill="#000000" stroke-linejoin="miter" fill-rule="nonzero" stroke-dasharray="none" d="M51.516,51.516L86.147,16.884L83.773,16.884C92.642,25.754,97.626,37.784,97.626,50.328C97.626,62.872,92.642,74.903,83.773,83.772L86.147,83.773L51.516,49.141L51.516,51.516ZM49.141,49.141L47.954,50.328L49.141,51.516L83.773,86.147L84.96,87.335L86.147,86.147C95.647,76.647,100.984,63.763,100.984,50.328C100.984,36.894,95.647,24.009,86.147,14.509L84.96,13.322L83.773,14.509L49.141,49.141Z"/>
  <path stroke-miterlimit="4" version="1.1" stroke-dasharray="none" stroke-linecap="butt" fill-opacity="1" fill="#000000" stroke="none" stroke-width="2px" stroke-linejoin="miter" xmlns:xlink="http://www.w3.org/1999/xlink" stroke-opacity="1" fill-rule="nonzero" d="M49.141,51.516L83.773,86.147L83.772,83.773C74.903,92.642,62.872,97.626,50.328,97.626C37.784,97.626,25.754,92.642,16.884,83.773L16.884,86.147L51.516,51.516L49.141,51.516ZM51.516,49.141L50.328,47.954L49.141,49.141L14.509,83.773L13.322,84.96L14.509,86.147C24.009,95.647,36.894,100.984,50.328,100.984C63.763,100.984,76.647,95.647,86.147,86.147L87.335,84.96L86.147,83.773L51.516,49.141Z"/>
</g>
  <g id="Regular-M" transform="matrix(1.0,0.0,0.0,1.0,1400.801612498848,1040.4416320300982)">  <path stroke-dasharray="none" stroke-width="2px" stroke-miterlimit="4" fill="#000000" stroke-linecap="butt" fill-rule="nonzero" stroke-linejoin="miter" fill-opacity="1" stroke-opacity="1" version="1.1" xmlns:xlink="http://www.w3.org/1999/xlink" stroke="none" d="M49.372,49.372L14.741,84.004L16.653,84.004C7.721,75.073,2.704,62.959,2.704,50.328C2.704,37.698,7.721,25.584,16.653,16.653L14.741,16.653L49.372,51.284L49.372,49.372ZM51.284,51.284L52.24,50.328L51.284,49.372L16.653,14.741L15.697,13.785L14.741,14.741C5.302,24.179,-0,36.98,-0,50.328C-0,63.676,5.302,76.477,14.741,85.916L15.697,86.872L16.653,85.916L51.284,51.284Z"/>
  <path fill="#000000" xmlns:xlink="http://www.w3.org/1999/xlink" stroke-dasharray="none" stroke-miterlimit="4" stroke-linecap="butt" stroke-width="2px" stroke-opacity="1" fill-opacity="1" version="1.1" stroke="none" fill-rule="nonzero" stroke-linejoin="miter" d="M50.328,50.328L15.697,15.697C24.882,6.512,37.339,1.352,50.328,1.352C63.318,1.352,75.775,6.512,84.96,15.697ZM50.328,50.328"/>
  <path fill="#000000" stroke-linejoin="miter" fill-opacity="1" xmlns:xlink="http://www.w3.org/1999/xlink" stroke="none" stroke-dasharray="none" stroke-miterlimit="4" version="1.1" stroke-width="2px" stroke-opacity="1" stroke-linecap="butt" fill-rule="nonzero" d="M51.284,49.372L16.653,14.741L16.653,16.653C25.584,7.721,37.698,2.704,50.328,2.704C62.959,2.704,75.073,7.721,84.004,16.653L84.004,14.741L49.372,49.372L51.284,49.372ZM49.372,51.284L50.328,52.24L51.284,51.284L85.916,16.653L86.872,15.697L85.916,14.741C76.477,5.302,63.676,-0,50.328,-0C36.98,-0,24.179,5.302,14.741,14.741L13.785,15.697L14.741,16.653L49.372,51.284Z"/>
  <path stroke-opacity="1" stroke-linecap="butt" fill-opacity="1" stroke-linejoin="miter" fill="#000000" fill-rule="nonzero" version="1.1" stroke="none" xmlns:xlink="http://www.w3.org/1999/xlink" stroke-dasharray="none" stroke-miterlimit="4" stroke-width="2px" d="M51.284,51.284L85.916,16.653L84.004,16.653C92.935,25.584,97.953,37.698,97.953,50.328C97.953,62.959,92.935,75.073,84.004,84.004L85.916,84.004L51.284,49.372L51.284,51.284ZM49.372,49.372L48.416,50.328L49.372,51.284L84.004,85.916L84.96,86.872L85.916,85.916C95.354,76.477,100.657,63.676,100.657,50.328C100.657,36.98,95.354,24.179,85.916,14.741L84.96,13.785L84.004,14.741L49.372,49.372Z"/>
  <path stroke-width="2px" xmlns:xlink="http://www.w3.org/1999/xlink" stroke-dasharray="none" version="1.1" stroke-linejoin="miter" stroke="none" stroke-opacity="1" stroke-linecap="butt" stroke-miterlimit="4" fill-opacity="1" fill-rule="nonzero" fill="#000000" d="M49.372,51.284L84.004,85.916L84.004,84.004C75.073,92.935,62.959,97.953,50.328,97.953C37.698,97.953,25.584,92.935,16.653,84.004L16.653,85.916L51.284,51.284L49.372,51.284ZM51.284,49.372L50.328,48.416L49.372,49.372L14.741,84.004L13.785,84.96L14.741,85.916C24.179,95.354,36.98,100.657,50.328,100.657C63.676,100.657,76.477,95.354,85.916,85.916L86.872,84.96L85.916,84.004L51.284,49.372Z"/>
</g>
  <g id="Light-M" transform="matrix(1.0,0.0,0.0,1.0,1104.0916124988482,1040.4416320300982)">  <path stroke-dasharray="none" stroke-opacity="1" stroke-width="2px" version="1.1" stroke-miterlimit="4" stroke-linejoin="miter" fill-opacity="1" stroke="none" xmlns:xlink="http://www.w3.org/1999/xlink" fill="#000000" stroke-linecap="butt" fill-rule="nonzero" d="M49.532,49.532L14.9,84.163L16.493,84.163C7.52,75.19,2.479,63.019,2.479,50.328C2.479,37.638,7.52,25.467,16.493,16.493L14.9,16.493L49.532,51.125L49.532,49.532ZM51.125,51.125L51.922,50.328L51.125,49.532L16.493,14.9L15.697,14.103L14.9,14.9C5.504,24.296,0.225,37.04,0.225,50.328C0.225,63.616,5.504,76.36,14.9,85.757L15.697,86.553L16.493,85.757L51.125,51.125Z"/>
  <path stroke-dasharray="none" xmlns:xlink="http://www.w3.org/1999/xlink" stroke="none" stroke-linejoin="miter" stroke-opacity="1" stroke-miterlimit="4" stroke-linecap="butt" fill-rule="nonzero" stroke-width="2px" version="1.1" fill-opacity="1" fill="#000000" d="M50.328,50.328L15.697,15.697C24.882,6.512,37.339,1.352,50.328,1.352C63.318,1.352,75.775,6.512,84.96,15.697ZM50.328,50.328"/>
  <path stroke-miterlimit="4" xmlns:xlink="http://www.w3.org/1999/xlink" stroke-linecap="butt" stroke-width="2px" stroke="none" fill-opacity="1" stroke-linejoin="miter" fill-rule="nonzero" stroke-dasharray="none" stroke-opacity="1" fill="#000000" version="1.1" d="M51.125,49.532L16.493,14.9L16.493,16.493C25.467,7.52,37.638,2.479,50.328,2.479C63.019,2.479,75.19,7.52,84.163,16.493L84.163,14.9L49.532,49.532L51.125,49.532ZM49.532,51.125L50.328,51.922L51.125,51.125L85.757,16.493L86.553,15.697L85.757,14.9C76.36,5.504,63.616,0.225,50.328,0.225C37.04,0.225,24.296,5.504,14.9,14.9L14.103,15.697L14.9,16.493L49.532,51.125Z"/>
  <path version="1.1" stroke-width="2px" stroke-opacity="1" stroke-linejoin="miter" fill-opacity="1" stroke-miterlimit="4" stroke-dasharray="none" fill-rule="nonzero" stroke-linecap="butt" stroke="none" xmlns:xlink="http://www.w3.org/1999/xlink" fill="#000000" d="M51.125,51.125L85.757,16.493L84.163,16.493C93.137,25.467,98.178,37.638,98.178,50.328C98.178,63.019,93.137,75.19,84.163,84.163L85.757,84.163L51.125,49.532L51.125,51.125ZM49.532,49.532L48.735,50.328L49.532,51.125L84.163,85.757L84.96,86.553L85.757,85.757C95.153,76.36,100.431,63.616,100.431,50.328C100.431,37.04,95.153,24.296,85.757,14.9L84.96,14.103L84.163,14.9L49.532,49.532Z"/>
  <path stroke-linejoin="miter" stroke-linecap="butt" fill="#000000" xmlns:xlink="http://www.w3.org/1999/xlink" stroke-dasharray="none" version="1.1" fill-rule="nonzero" stroke-miterlimit="4" stroke-width="2px" stroke="none" stroke-opacity="1" fill-opacity="1" d="M49.532,51.125L84.163,85.757L84.163,84.163C75.19,93.137,63.019,98.178,50.328,98.178C37.638,98.178,25.467,93.137,16.493,84.163L16.493,85.757L51.125,51.125L49.532,51.125ZM51.125,49.532L50.328,48.735L49.532,49.532L14.9,84.163L14.103,84.96L14.9,85.757C24.296,95.153,37.04,100.431,50.328,100.431C63.616,100.431,76.36,95.153,85.757,85.757L86.553,84.96L85.757,84.163L51.125,49.532Z"/>
</g>
  <g id="Thin-M" transform="matrix(1.0,0.0,0.0,1.0,807.3816124988483,1040.4416320300982)">  <path stroke-opacity="1" stroke-linecap="butt" stroke-linejoin="miter" stroke-dasharray="none" stroke-miterlimit="4" stroke-width="2px" fill-rule="nonzero" version="1.1" stroke="none" fill-opacity="1" xmlns:xlink="http://www.w3.org/1999/xlink" fill="#000000" d="M49.691,49.691L15.059,84.323L16.334,84.323C7.318,75.307,2.253,63.079,2.253,50.328C2.253,37.578,7.318,25.35,16.334,16.334L15.059,16.334L49.691,50.966L49.691,49.691ZM50.966,50.966L51.603,50.328L50.966,49.691L16.334,15.059L15.697,14.422L15.059,15.059C5.705,24.413,0.451,37.1,0.451,50.328C0.451,63.557,5.705,76.243,15.059,85.597L15.697,86.235L16.334,85.597L50.966,50.966Z"/>
  <path fill-opacity="1" stroke-linecap="butt" stroke-dasharray="none" stroke-linejoin="miter" stroke-width="2px" fill="#000000" stroke="none" fill-rule="nonzero" stroke-opacity="1" version="1.1" xmlns:xlink="http://www.w3.org/1999/xlink" stroke-miterlimit="4" d="M50.328,50.328L15.697,15.697C24.882,6.512,37.339,1.352,50.328,1.352C63.318,1.352,75.775,6.512,84.96,15.697ZM50.328,50.328"/>
  <path version="1.1" stroke="none" fill-rule="nonzero" stroke-linejoin="miter" stroke-opacity="1" stroke-miterlimit="4" stroke-width="2px" stroke-linecap="butt" xmlns:xlink="http://www.w3.org/1999/xlink" stroke-dasharray="none" fill="#000000" fill-opacity="1" d="M50.966,49.691L16.334,15.059L16.334,16.334C25.35,7.318,37.578,2.253,50.328,2.253C63.079,2.253,75.307,7.318,84.323,16.334L84.323,15.059L49.691,49.691L50.966,49.691ZM49.691,50.966L50.328,51.603L50.966,50.966L85.597,16.334L86.235,15.697L85.597,15.059C76.243,5.705,63.557,0.451,50.328,0.451C37.1,0.451,24.413,5.705,15.059,15.059L14.422,15.697L15.059,16.334L49.691,50.966Z"/>
  <path stroke-linejoin="miter" version="1.1" stroke-width="2px" stroke-miterlimit="4" xmlns:xlink="http://www.w3.org/1999/xlink" stroke-linecap="butt" fill-rule="nonzero" stroke="none" fill-opacity="1" stroke-dasharray="none" stroke-opacity="1" fill="#000000" d="M50.966,50.966L85.597,16.334L84.323,16.334C93.338,25.35,98.403,37.578,98.403,50.328C98.403,63.079,93.338,75.307,84.323,84.323L85.597,84.323L50.966,49.691L50.966,50.966ZM49.691,49.691L49.054,50.328L49.691,50.966L84.323,85.597L84.96,86.235L85.597,85.597C94.951,76.243,100.206,63.557,100.206,50.328C100.206,37.1,94.951,24.413,85.597,15.059L84.96,14.422L84.323,15.059L49.691,49.691Z"/>
  <path stroke-width="2px" version="1.1" stroke-opacity="1" stroke-linecap="butt" stroke-dasharray="none" xmlns:xlink="http://www.w3.org/1999/xlink" stroke="none" stroke-miterlimit="4" fill="#000000" stroke-linejoin="miter" fill-rule="nonzero" fill-opacity="1" d="M49.691,50.966L84.323,85.597L84.323,84.323C75.307,93.338,63.079,98.403,50.328,98.403C37.578,98.403,25.35,93.338,16.334,84.323L16.334,85.597L50.966,50.966L49.691,50.966ZM50.966,49.691L50.328,49.054L49.691,49.691L15.059,84.323L14.422,84.96L15.059,85.597C24.413,94.951,37.1,100.206,50.328,100.206C63.557,100.206,76.243,94.951,85.597,85.597L86.235,84.96L85.597,84.323L50.966,49.691Z"/>
</g>
  <g id="Ultralight-M" transform="matrix(1.0,0.0,0.0,1.0,510.67161249884816,1040.4416320300982)">  <path fill-rule="nonzero" stroke-dasharray="none" stroke="none" xmlns:xlink="http://www.w3.org/1999/xlink" fill-opacity="1" stroke-linecap="butt" version="1.1" stroke-opacity="1" stroke-miterlimit="4" stroke-linejoin="miter" fill="#000000" stroke-width="2px" d="M49.85,49.85L15.219,84.482L16.175,84.482C7.117,75.424,2.028,63.138,2.028,50.328C2.028,37.518,7.117,25.233,16.175,16.175L15.219,16.175L49.85,50.806L49.85,49.85ZM50.806,50.806L51.284,50.328L50.806,49.85L16.175,15.219L15.697,14.741L15.219,15.219C5.907,24.53,0.676,37.16,0.676,50.328C0.676,63.497,5.907,76.126,15.219,85.438L15.697,85.916L16.175,85.438L50.806,50.806Z"/>
  <path stroke-linejoin="miter" stroke-miterlimit="4" xmlns:xlink="http://www.w3.org/1999/xlink" stroke-linecap="butt" version="1.1" stroke-opacity="1" fill-opacity="1" stroke-dasharray="none" stroke="none" stroke-width="2px" fill="#000000" fill-rule="nonzero" d="M50.328,50.328L15.697,15.697C24.882,6.512,37.339,1.352,50.328,1.352C63.318,1.352,75.775,6.512,84.96,15.697ZM50.328,50.328"/>
  <path stroke-linecap="butt" stroke-width="2px" stroke="none" version="1.1" stroke-linejoin="miter" fill="#000000" stroke-miterlimit="4" fill-opacity="1" fill-rule="nonzero" xmlns:xlink="http://www.w3.org/1999/xlink" stroke-opacity="1" stroke-dasharray="none" d="M50.806,49.85L16.175,15.219L16.175,16.175C25.233,7.117,37.518,2.028,50.328,2.028C63.138,2.028,75.424,7.117,84.482,16.175L84.482,15.219L49.85,49.85L50.806,49.85ZM49.85,50.806L50.328,51.284L50.806,50.806L85.438,16.175L85.916,15.697L85.438,15.219C76.126,5.907,63.497,0.676,50.328,0.676C37.16,0.676,24.53,5.907,15.219,15.219L14.741,15.697L15.219,16.175L49.85,50.806Z"/>
  <path stroke-miterlimit="4" stroke-width="2px" stroke-linecap="butt" fill-opacity="1" fill-rule="nonzero" version="1.1" stroke="none" stroke-dasharray="none" fill="#000000" xmlns:xlink="http://www.w3.org/1999/xlink" stroke-linejoin="miter" stroke-opacity="1" d="M50.806,50.806L85.438,16.175L84.482,16.175C93.54,25.233,98.629,37.518,98.629,50.328C98.629,63.138,93.54,75.424,84.482,84.482L85.438,84.482L50.806,49.85L50.806,50.806ZM49.85,49.85L49.372,50.328L49.85,50.806L84.482,85.438L84.96,85.916L85.438,85.438C94.75,76.126,99.981,63.497,99.981,50.328C99.981,37.16,94.75,24.53,85.438,15.219L84.96,14.741L84.482,15.219L49.85,49.85Z"/>
  <path stroke-width="2px" stroke="none" xmlns:xlink="http://www.w3.org/1999/xlink" stroke-opacity="1" stroke-miterlimit="4" stroke-linecap="butt" stroke-dasharray="none" stroke-linejoin="miter" fill-rule="nonzero" fill="#000000" version="1.1" fill-opacity="1" d="M49.85,50.806L84.482,85.438L84.482,84.482C75.424,93.54,63.138,98.629,50.328,98.629C37.518,98.629,25.233,93.54,16.175,84.482L16.175,85.438L50.806,50.806L49.85,50.806ZM50.806,49.85L50.328,49.372L49.85,49.85L15.219,84.482L14.741,84.96L15.219,85.438C24.53,94.75,37.16,99.981,50.328,99.981C63.497,99.981,76.126,94.75,85.438,85.438L85.916,84.96L85.438,84.482L50.806,49.85Z"/>
</g>
  <g id="Black-S" transform="matrix(1.0,0.0,0.0,1.0,2895.272872586598,621.3628921178481)">  <path version="1.1" fill="#000000" stroke-linecap="butt" stroke-dasharray="none" fill-opacity="1" fill-rule="nonzero" stroke="none" stroke-opacity="1" stroke-miterlimit="4" stroke-linejoin="miter" xmlns:xlink="http://www.w3.org/1999/xlink" stroke-width="2px" d="M37.753,37.753L10.636,64.869L13.945,64.869C7.192,58.116,3.398,48.957,3.398,39.407C3.398,29.857,7.192,20.698,13.945,13.945L10.636,13.945L37.753,41.061L37.753,37.753ZM41.061,41.061L42.716,39.407L41.061,37.753L13.945,10.636L12.291,8.982L10.636,10.636C3.006,18.267,-1.281,28.616,-1.281,39.407C-1.281,50.198,3.006,60.547,10.636,68.178L12.291,69.832L13.945,68.178L41.061,41.061Z"/>
  <path stroke-linecap="butt" fill-rule="nonzero" version="1.1" stroke-opacity="1" fill-opacity="1" stroke-miterlimit="4" stroke-dasharray="none" xmlns:xlink="http://www.w3.org/1999/xlink" fill="#000000" stroke="none" stroke-linejoin="miter" stroke-width="2px" d="M39.407,39.407L12.291,12.291C19.482,5.099,29.236,1.058,39.407,1.058C49.578,1.058,59.332,5.099,66.524,12.291ZM39.407,39.407"/>
  <path stroke-width="2px" stroke-dasharray="none" xmlns:xlink="http://www.w3.org/1999/xlink" stroke-linejoin="miter" stroke-miterlimit="4" fill="#000000" version="1.1" stroke="none" fill-rule="nonzero" stroke-opacity="1" fill-opacity="1" stroke-linecap="butt" d="M41.061,37.753L13.945,10.636L13.945,13.945C20.698,7.192,29.857,3.398,39.407,3.398C48.957,3.398,58.116,7.192,64.869,13.945L64.869,10.636L37.753,37.753L41.061,37.753ZM37.753,41.061L39.407,42.716L41.061,41.061L68.178,13.945L69.832,12.291L68.178,10.636C60.547,3.006,50.198,-1.281,39.407,-1.281C28.616,-1.281,18.267,3.006,10.636,10.636L8.982,12.291L10.636,13.945L37.753,41.061Z"/>
  <path stroke-opacity="1" stroke-linejoin="miter" stroke-miterlimit="4" fill-opacity="1" fill-rule="nonzero" stroke-width="2px" fill="#000000" version="1.1" xmlns:xlink="http://www.w3.org/1999/xlink" stroke-dasharray="none" stroke="none" stroke-linecap="butt" d="M41.061,41.061L68.178,13.945L64.869,13.945C71.622,20.698,75.416,29.857,75.416,39.407C75.416,48.957,71.622,58.116,64.869,64.869L68.178,64.869L41.061,37.753L41.061,41.061ZM37.753,37.753L36.098,39.407L37.753,41.061L64.869,68.178L66.524,69.832L68.178,68.178C75.808,60.547,80.095,50.198,80.095,39.407C80.095,28.616,75.808,18.267,68.178,10.636L66.524,8.982L64.869,10.636L37.753,37.753Z"/>
  <path version="1.1" stroke-dasharray="none" stroke-linejoin="miter" stroke-miterlimit="4" stroke-linecap="butt" stroke-width="2px" xmlns:xlink="http://www.w3.org/1999/xlink" fill-opacity="1" fill-rule="nonzero" stroke="none" stroke-opacity="1" fill="#000000" d="M37.753,41.061L64.869,68.178L64.869,64.869C58.116,71.622,48.957,75.416,39.407,75.416C29.857,75.416,20.698,71.622,13.945,64.869L13.945,68.178L41.061,41.061L37.753,41.061ZM41.061,37.753L39.407,36.098L37.753,37.753L10.636,64.869L8.982,66.524L10.636,68.178C18.267,75.808,28.616,80.095,39.407,80.095C50.198,80.095,60.547,75.808,68.178,68.178L69.832,66.524L68.178,64.869L41.061,37.753Z"/>
</g>
  <g id="Heavy-S" transform="matrix(1.0,0.0,0.0,1.0,2598.562872586598,621.3628921178481)">  <path stroke-miterlimit="4" fill-rule="nonzero" stroke-linecap="butt" version="1.1" xmlns:xlink="http://www.w3.org/1999/xlink" stroke-width="2px" stroke="none" fill="#000000" stroke-linejoin="miter" fill-opacity="1" stroke-opacity="1" stroke-dasharray="none" d="M37.934,37.934L10.817,65.05L13.764,65.05C6.963,58.249,3.142,49.025,3.142,39.407C3.142,29.789,6.963,20.565,13.764,13.764L10.817,13.764L37.934,40.88L37.934,37.934ZM40.88,40.88L42.353,39.407L40.88,37.934L13.764,10.817L12.291,9.344L10.817,10.817C3.235,18.4,-1.025,28.684,-1.025,39.407C-1.025,50.13,3.235,60.414,10.817,67.997L12.291,69.47L13.764,67.997L40.88,40.88Z"/>
  <path stroke-miterlimit="4" stroke-opacity="1" stroke-width="2px" fill="#000000" version="1.1" stroke-linejoin="miter" stroke-dasharray="none" fill-rule="nonzero" stroke-linecap="butt" stroke="none" fill-opacity="1" xmlns:xlink="http://www.w3.org/1999/xlink" d="M39.407,39.407L12.291,12.291C19.482,5.099,29.236,1.058,39.407,1.058C49.578,1.058,59.332,5.099,66.524,12.291ZM39.407,39.407"/>
  <path fill="#000000" stroke-dasharray="none" stroke-opacity="1" xmlns:xlink="http://www.w3.org/1999/xlink" version="1.1" fill-rule="nonzero" stroke-width="2px" stroke-linejoin="miter" stroke-miterlimit="4" fill-opacity="1" stroke="none" stroke-linecap="butt" d="M40.88,37.934L13.764,10.817L13.764,13.764C20.565,6.963,29.789,3.142,39.407,3.142C49.025,3.142,58.249,6.963,65.05,13.764L65.05,10.817L37.934,37.934L40.88,37.934ZM37.934,40.88L39.407,42.353L40.88,40.88L67.997,13.764L69.47,12.291L67.997,10.817C60.414,3.235,50.13,-1.025,39.407,-1.025C28.684,-1.025,18.4,3.235,10.817,10.817L9.344,12.291L10.817,13.764L37.934,40.88Z"/>
  <path version="1.1" stroke-linecap="butt" stroke="none" stroke-opacity="1" stroke-width="2px" stroke-linejoin="miter" xmlns:xlink="http://www.w3.org/1999/xlink" fill-rule="nonzero" fill="#000000" stroke-miterlimit="4" stroke-dasharray="none" fill-opacity="1" d="M40.88,40.88L67.997,13.764L65.05,13.764C71.851,20.565,75.672,29.789,75.672,39.407C75.672,49.025,71.851,58.249,65.05,65.05L67.997,65.05L40.88,37.934L40.88,40.88ZM37.934,37.934L36.461,39.407L37.934,40.88L65.05,67.997L66.524,69.47L67.997,67.997C75.579,60.414,79.839,50.13,79.839,39.407C79.839,28.684,75.579,18.4,67.997,10.817L66.524,9.344L65.05,10.817L37.934,37.934Z"/>
  <path version="1.1" stroke-linecap="butt" xmlns:xlink="http://www.w3.org/1999/xlink" fill-rule="nonzero" stroke-dasharray="none" fill-opacity="1" fill="#000000" stroke="none" stroke-width="2px" stroke-opacity="1" stroke-miterlimit="4" stroke-linejoin="miter" d="M37.934,40.88L65.05,67.997L65.05,65.05C58.249,71.851,49.025,75.672,39.407,75.672C29.789,75.672,20.565,71.851,13.764,65.05L13.764,67.997L40.88,40.88L37.934,40.88ZM40.88,37.934L39.407,36.461L37.934,37.934L10.817,65.05L9.344,66.524L10.817,67.997C18.4,75.579,28.684,79.839,39.407,79.839C50.13,79.839,60.414,75.579,67.997,67.997L69.47,66.524L67.997,65.05L40.88,37.934Z"/>
</g>
  <g id="Bold-S" transform="matrix(1.0,0.0,0.0,1.0,2301.852872586598,621.3628921178481)">  <path stroke-dasharray="none" stroke-linecap="butt" xmlns:xlink="http://www.w3.org/1999/xlink" stroke-opacity="1" fill="#000000" version="1.1" stroke-miterlimit="4" stroke="none" fill-opacity="1" stroke-linejoin="miter" stroke-width="2px" fill-rule="nonzero" d="M38.115,38.115L10.999,65.232L13.583,65.232C6.733,58.382,2.886,49.093,2.886,39.407C2.886,29.721,6.733,20.432,13.583,13.583L10.999,13.583L38.115,40.699L38.115,38.115ZM40.699,40.699L41.991,39.407L40.699,38.115L13.583,10.999L12.291,9.707L10.999,10.999C3.464,18.533,-0.769,28.752,-0.769,39.407C-0.769,50.062,3.464,60.281,10.999,67.816L12.291,69.108L13.583,67.816L40.699,40.699Z"/>
  <path xmlns:xlink="http://www.w3.org/1999/xlink" stroke-opacity="1" stroke="none" stroke-width="2px" stroke-linecap="butt" stroke-miterlimit="4" stroke-dasharray="none" stroke-linejoin="miter" fill="#000000" fill-opacity="1" fill-rule="nonzero" version="1.1" d="M39.407,39.407L12.291,12.291C19.482,5.099,29.236,1.058,39.407,1.058C49.578,1.058,59.332,5.099,66.524,12.291ZM39.407,39.407"/>
  <path stroke="none" stroke-opacity="1" fill-rule="nonzero" version="1.1" stroke-miterlimit="4" xmlns:xlink="http://www.w3.org/1999/xlink" stroke-linecap="butt" stroke-linejoin="miter" fill-opacity="1" stroke-dasharray="none" stroke-width="2px" fill="#000000" d="M40.699,38.115L13.583,10.999L13.583,13.583C20.432,6.733,29.721,2.886,39.407,2.886C49.093,2.886,58.382,6.733,65.232,13.583L65.232,10.999L38.115,38.115L40.699,38.115ZM38.115,40.699L39.407,41.991L40.699,40.699L67.816,13.583L69.108,12.291L67.816,10.999C60.281,3.464,50.062,-0.769,39.407,-0.769C28.752,-0.769,18.533,3.464,10.999,10.999L9.707,12.291L10.999,13.583L38.115,40.699Z"/>
  <path fill-opacity="1" fill-rule="nonzero" fill="#000000" stroke-dasharray="none" stroke-linecap="butt" xmlns:xlink="http://www.w3.org/1999/xlink" stroke-miterlimit="4" stroke="none" stroke-width="2px" stroke-opacity="1" stroke-linejoin="miter" version="1.1" d="M40.699,40.699L67.816,13.583L65.232,13.583C72.081,20.432,75.928,29.721,75.928,39.407C75.928,49.093,72.081,58.382,65.232,65.232L67.816,65.232L40.699,38.115L40.699,40.699ZM38.115,38.115L36.823,39.407L38.115,40.699L65.232,67.816L66.524,69.108L67.816,67.816C75.35,60.281,79.583,50.062,79.583,39.407C79.583,28.752,75.35,18.533,67.816,10.999L66.524,9.707L65.232,10.999L38.115,38.115Z"/>
  <path fill-opacity="1" stroke-miterlimit="4" stroke="none" stroke-linecap="butt" stroke-width="2px" stroke-dasharray="none" version="1.1" xmlns:xlink="http://www.w3.org/1999/xlink" fill-rule="nonzero" stroke-opacity="1" fill="#000000" stroke-linejoin="miter" d="M38.115,40.699L65.232,67.816L65.232,65.232C58.382,72.081,49.093,75.928,39.407,75.928C29.721,75.928,20.432,72.081,13.583,65.232L13.583,67.816L40.699,40.699L38.115,40.699ZM40.699,38.115L39.407,36.823L38.115,38.115L10.999,65.232L9.707,66.524L10.999,67.816C18.533,75.35,28.752,79.583,39.407,79.583C50.062,79.583,60.281,75.35,67.816,67.816L69.108,66.524L67.816,65.232L40.699,38.115Z"/>
</g>
  <g id="Semibold-S" transform="matrix(1.0,0.0,0.0,1.0,2005.142872586598,621.3628921178481)">  <path stroke-linecap="butt" version="1.1" stroke="none" stroke-width="2px" fill-opacity="1" stroke-linejoin="miter" fill-rule="nonzero" stroke-opacity="1" stroke-dasharray="none" xmlns:xlink="http://www.w3.org/1999/xlink" fill="#000000" stroke-miterlimit="4" d="M38.296,38.296L11.18,65.413L13.401,65.413C6.504,58.516,2.629,49.161,2.629,39.407C2.629,29.653,6.504,20.299,13.401,13.401L11.18,13.401L38.296,40.518L38.296,38.296ZM40.518,40.518L41.629,39.407L40.518,38.296L13.401,11.18L12.291,10.069L11.18,11.18C3.693,18.666,-0.512,28.82,-0.512,39.407C-0.512,49.994,3.693,60.148,11.18,67.634L12.291,68.745L13.401,67.634L40.518,40.518Z"/>
  <path fill="#000000" stroke-dasharray="none" fill-opacity="1" stroke-width="2px" version="1.1" stroke-linecap="butt" stroke-miterlimit="4" stroke="none" fill-rule="nonzero" xmlns:xlink="http://www.w3.org/1999/xlink" stroke-opacity="1" stroke-linejoin="miter" d="M39.407,39.407L12.291,12.291C19.482,5.099,29.236,1.058,39.407,1.058C49.578,1.058,59.332,5.099,66.524,12.291ZM39.407,39.407"/>
  <path xmlns:xlink="http://www.w3.org/1999/xlink" fill-rule="nonzero" stroke-miterlimit="4" version="1.1" stroke="none" stroke-opacity="1" stroke-dasharray="none" fill="#000000" stroke-width="2px" stroke-linecap="butt" stroke-linejoin="miter" fill-opacity="1" d="M40.518,38.296L13.401,11.18L13.401,13.401C20.299,6.504,29.653,2.629,39.407,2.629C49.161,2.629,58.516,6.504,65.413,13.401L65.413,11.18L38.296,38.296L40.518,38.296ZM38.296,40.518L39.407,41.629L40.518,40.518L67.634,13.401L68.745,12.291L67.634,11.18C60.148,3.693,49.994,-0.512,39.407,-0.512C28.82,-0.512,18.666,3.693,11.18,11.18L10.069,12.291L11.18,13.401L38.296,40.518Z"/>
  <path fill-rule="nonzero" fill-opacity="1" xmlns:xlink="http://www.w3.org/1999/xlink" stroke-dasharray="none" stroke-width="2px" stroke="none" stroke-linecap="butt" stroke-linejoin="miter" version="1.1" stroke-opacity="1" fill="#000000" stroke-miterlimit="4" d="M40.518,40.518L67.634,13.401L65.413,13.401C72.31,20.299,76.185,29.653,76.185,39.407C76.185,49.161,72.31,58.516,65.413,65.413L67.634,65.413L40.518,38.296L40.518,40.518ZM38.296,38.296L37.185,39.407L38.296,40.518L65.413,67.634L66.524,68.745L67.634,67.634C75.121,60.148,79.327,49.994,79.327,39.407C79.327,28.82,75.121,18.666,67.634,11.18L66.524,10.069L65.413,11.18L38.296,38.296Z"/>
  <path stroke-linecap="butt" stroke="none" stroke-opacity="1" fill="#000000" fill-opacity="1" stroke-linejoin="miter" stroke-miterlimit="4" fill-rule="nonzero" stroke-dasharray="none" xmlns:xlink="http://www.w3.org/1999/xlink" version="1.1" stroke-width="2px" d="M38.296,40.518L65.413,67.634L65.413,65.413C58.516,72.31,49.161,76.185,39.407,76.185C29.653,76.185,20.299,72.31,13.401,65.413L13.401,67.634L40.518,40.518L38.296,40.518ZM40.518,38.296L39.407,37.185L38.296,38.296L11.18,65.413L10.069,66.524L11.18,67.634C18.666,75.121,28.82,79.327,39.407,79.327C49.994,79.327,60.148,75.121,67.634,67.634L68.745,66.524L67.634,65.413L40.518,38.296Z"/>
</g>
  <g id="Medium-S" transform="matrix(1.0,0.0,0.0,1.0,1708.432872586598,621.3628921178481)">  <path fill-rule="nonzero" fill-opacity="1" xmlns:xlink="http://www.w3.org/1999/xlink" stroke-opacity="1" stroke-dasharray="none" version="1.1" stroke-linejoin="miter" stroke="none" stroke-width="2px" fill="#000000" stroke-linecap="butt" stroke-miterlimit="4" d="M38.477,38.477L11.361,65.594L13.22,65.594C6.275,58.649,2.373,49.229,2.373,39.407C2.373,29.585,6.275,20.165,13.22,13.22L11.361,13.22L38.477,40.337L38.477,38.477ZM40.337,40.337L41.266,39.407L40.337,38.477L13.22,11.361L12.291,10.431L11.361,11.361C3.923,18.799,-0.256,28.888,-0.256,39.407C-0.256,49.926,3.923,60.015,11.361,67.453L12.291,68.383L13.22,67.453L40.337,40.337Z"/>
  <path stroke-width="2px" stroke-opacity="1" stroke-miterlimit="4" stroke-dasharray="none" xmlns:xlink="http://www.w3.org/1999/xlink" stroke-linejoin="miter" version="1.1" fill-rule="nonzero" stroke="none" fill="#000000" stroke-linecap="butt" fill-opacity="1" d="M39.407,39.407L12.291,12.291C19.482,5.099,29.236,1.058,39.407,1.058C49.578,1.058,59.332,5.099,66.524,12.291ZM39.407,39.407"/>
  <path stroke-linejoin="miter" stroke="none" stroke-width="2px" xmlns:xlink="http://www.w3.org/1999/xlink" fill-rule="nonzero" fill="#000000" fill-opacity="1" stroke-opacity="1" stroke-miterlimit="4" stroke-linecap="butt" stroke-dasharray="none" version="1.1" d="M40.337,38.477L13.22,11.361L13.22,13.22C20.165,6.275,29.585,2.373,39.407,2.373C49.229,2.373,58.649,6.275,65.594,13.22L65.594,11.361L38.477,38.477L40.337,38.477ZM38.477,40.337L39.407,41.266L40.337,40.337L67.453,13.22L68.383,12.291L67.453,11.361C60.015,3.923,49.926,-0.256,39.407,-0.256C28.888,-0.256,18.799,3.923,11.361,11.361L10.431,12.291L11.361,13.22L38.477,40.337Z"/>
  <path xmlns:xlink="http://www.w3.org/1999/xlink" stroke="none" stroke-width="2px" version="1.1" fill-opacity="1" stroke-miterlimit="4" stroke-opacity="1" stroke-linecap="butt" fill="#000000" stroke-linejoin="miter" fill-rule="nonzero" stroke-dasharray="none" d="M40.337,40.337L67.453,13.22L65.594,13.22C72.539,20.165,76.441,29.585,76.441,39.407C76.441,49.229,72.539,58.649,65.594,65.594L67.453,65.594L40.337,38.477L40.337,40.337ZM38.477,38.477L37.548,39.407L38.477,40.337L65.594,67.453L66.524,68.383L67.453,67.453C74.892,60.015,79.07,49.926,79.07,39.407C79.07,28.888,74.892,18.799,67.453,11.361L66.524,10.431L65.594,11.361L38.477,38.477Z"/>
  <path stroke-miterlimit="4" version="1.1" stroke-dasharray="none" stroke-linecap="butt" fill-opacity="1" fill="#000000" stroke="none" stroke-width="2px" stroke-linejoin="miter" xmlns:xlink="http://www.w3.org/1999/xlink" stroke-opacity="1" fill-rule="nonzero" d="M38.477,40.337L65.594,67.453L65.594,65.594C58.649,72.539,49.229,76.441,39.407,76.441C29.585,76.441,20.165,72.539,13.22,65.594L13.22,67.453L40.337,40.337L38.477,40.337ZM40.337,38.477L39.407,37.548L38.477,38.477L11.361,65.594L10.431,66.524L11.361,67.453C18.799,74.892,28.888,79.07,39.407,79.07C49.926,79.07,60.015,74.892,67.453,67.453L68.383,66.524L67.453,65.594L40.337,38.477Z"/>
</g>
  <g id="Regular-S" transform="matrix(1.0,0.0,0.0,1.0,1411.722872586598,621.3628921178481)">  <path stroke-dasharray="none" stroke-width="2px" stroke-miterlimit="4" fill="#000000" stroke-linecap="butt" fill-rule="nonzero" stroke-linejoin="miter" fill-opacity="1" stroke-opacity="1" version="1.1" xmlns:xlink="http://www.w3.org/1999/xlink" stroke="none" d="M38.659,38.659L11.542,65.775L13.039,65.775C6.046,58.782,2.117,49.297,2.117,39.407C2.117,29.517,6.046,20.032,13.039,13.039L11.542,13.039L38.659,40.156L38.659,38.659ZM40.156,40.156L40.904,39.407L40.156,38.659L13.039,11.542L12.291,10.793L11.542,11.542C4.152,18.932,-0,28.956,-0,39.407C-0,49.859,4.152,59.882,11.542,67.272L12.291,68.021L13.039,67.272L40.156,40.156Z"/>
  <path fill="#000000" xmlns:xlink="http://www.w3.org/1999/xlink" stroke-dasharray="none" stroke-miterlimit="4" stroke-linecap="butt" stroke-width="2px" stroke-opacity="1" fill-opacity="1" version="1.1" stroke="none" fill-rule="nonzero" stroke-linejoin="miter" d="M39.407,39.407L12.291,12.291C19.482,5.099,29.236,1.058,39.407,1.058C49.578,1.058,59.332,5.099,66.524,12.291ZM39.407,39.407"/>
  <path fill="#000000" stroke-linejoin="miter" fill-opacity="1" xmlns:xlink="http://www.w3.org/1999/xlink" stroke="none" stroke-dasharray="none" stroke-miterlimit="4" version="1.1" stroke-width="2px" stroke-opacity="1" stroke-linecap="butt" fill-rule="nonzero" d="M40.156,38.659L13.039,11.542L13.039,13.039C20.032,6.046,29.517,2.117,39.407,2.117C49.297,2.117,58.782,6.046,65.775,13.039L65.775,11.542L38.659,38.659L40.156,38.659ZM38.659,40.156L39.407,40.904L40.156,40.156L67.272,13.039L68.021,12.291L67.272,11.542C59.882,4.152,49.859,-0,39.407,-0C28.956,-0,18.932,4.152,11.542,11.542L10.793,12.291L11.542,13.039L38.659,40.156Z"/>
  <path stroke-opacity="1" stroke-linecap="butt" fill-opacity="1" stroke-linejoin="miter" fill="#000000" fill-rule="nonzero" version="1.1" stroke="none" xmlns:xlink="http://www.w3.org/1999/xlink" stroke-dasharray="none" stroke-miterlimit="4" stroke-width="2px" d="M40.156,40.156L67.272,13.039L65.775,13.039C72.768,20.032,76.697,29.517,76.697,39.407C76.697,49.297,72.768,58.782,65.775,65.775L67.272,65.775L40.156,38.659L40.156,40.156ZM38.659,38.659L37.91,39.407L38.659,40.156L65.775,67.272L66.524,68.021L67.272,67.272C74.662,59.882,78.814,49.859,78.814,39.407C78.814,28.956,74.662,18.932,67.272,11.542L66.524,10.793L65.775,11.542L38.659,38.659Z"/>
  <path stroke-width="2px" xmlns:xlink="http://www.w3.org/1999/xlink" stroke-dasharray="none" version="1.1" stroke-linejoin="miter" stroke="none" stroke-opacity="1" stroke-linecap="butt" stroke-miterlimit="4" fill-opacity="1" fill-rule="nonzero" fill="#000000" d="M38.659,40.156L65.775,67.272L65.775,65.775C58.782,72.768,49.297,76.697,39.407,76.697C29.517,76.697,20.032,72.768,13.039,65.775L13.039,67.272L40.156,40.156L38.659,40.156ZM40.156,38.659L39.407,37.91L38.659,38.659L11.542,65.775L10.793,66.524L11.542,67.272C18.932,74.662,28.956,78.814,39.407,78.814C49.859,78.814,59.882,74.662,67.272,67.272L68.021,66.524L67.272,65.775L40.156,38.659Z"/>
</g>
  <g id="Light-S" transform="matrix(1.0,0.0,0.0,1.0,1115.0128725865982,621.3628921178481)">  <path stroke-dasharray="none" stroke-opacity="1" stroke-width="2px" version="1.1" stroke-miterlimit="4" stroke-linejoin="miter" fill-opacity="1" stroke="none" xmlns:xlink="http://www.w3.org/1999/xlink" fill="#000000" stroke-linecap="butt" fill-rule="nonzero" d="M38.783,38.783L11.667,65.9L12.914,65.9C5.888,58.873,1.941,49.344,1.941,39.407C1.941,29.47,5.888,19.941,12.914,12.914L11.667,12.914L38.783,40.031L38.783,38.783ZM40.031,40.031L40.655,39.407L40.031,38.783L12.914,11.667L12.291,11.043L11.667,11.667C4.31,19.024,0.176,29.002,0.176,39.407C0.176,49.812,4.31,59.79,11.667,67.147L12.291,67.771L12.914,67.147L40.031,40.031Z"/>
  <path stroke-dasharray="none" xmlns:xlink="http://www.w3.org/1999/xlink" stroke="none" stroke-linejoin="miter" stroke-opacity="1" stroke-miterlimit="4" stroke-linecap="butt" fill-rule="nonzero" stroke-width="2px" version="1.1" fill-opacity="1" fill="#000000" d="M39.407,39.407L12.291,12.291C19.482,5.099,29.236,1.058,39.407,1.058C49.578,1.058,59.332,5.099,66.524,12.291ZM39.407,39.407"/>
  <path stroke-miterlimit="4" xmlns:xlink="http://www.w3.org/1999/xlink" stroke-linecap="butt" stroke-width="2px" stroke="none" fill-opacity="1" stroke-linejoin="miter" fill-rule="nonzero" stroke-dasharray="none" stroke-opacity="1" fill="#000000" version="1.1" d="M40.031,38.783L12.914,11.667L12.914,12.914C19.941,5.888,29.47,1.941,39.407,1.941C49.344,1.941,58.873,5.888,65.9,12.914L65.9,11.667L38.783,38.783L40.031,38.783ZM38.783,40.031L39.407,40.655L40.031,40.031L67.147,12.914L67.771,12.291L67.147,11.667C59.79,4.31,49.812,0.176,39.407,0.176C29.002,0.176,19.024,4.31,11.667,11.667L11.043,12.291L11.667,12.914L38.783,40.031Z"/>
  <path version="1.1" stroke-width="2px" stroke-opacity="1" stroke-linejoin="miter" fill-opacity="1" stroke-miterlimit="4" stroke-dasharray="none" fill-rule="nonzero" stroke-linecap="butt" stroke="none" xmlns:xlink="http://www.w3.org/1999/xlink" fill="#000000" d="M40.031,40.031L67.147,12.914L65.9,12.914C72.926,19.941,76.873,29.47,76.873,39.407C76.873,49.344,72.926,58.873,65.9,65.9L67.147,65.9L40.031,38.783L40.031,40.031ZM38.783,38.783L38.159,39.407L38.783,40.031L65.9,67.147L66.524,67.771L67.147,67.147C74.505,59.79,78.638,49.812,78.638,39.407C78.638,29.002,74.505,19.024,67.147,11.667L66.524,11.043L65.9,11.667L38.783,38.783Z"/>
  <path stroke-linejoin="miter" stroke-linecap="butt" fill="#000000" xmlns:xlink="http://www.w3.org/1999/xlink" stroke-dasharray="none" version="1.1" fill-rule="nonzero" stroke-miterlimit="4" stroke-width="2px" stroke="none" stroke-opacity="1" fill-opacity="1" d="M38.783,40.031L65.9,67.147L65.9,65.9C58.873,72.926,49.344,76.873,39.407,76.873C29.47,76.873,19.941,72.926,12.914,65.9L12.914,67.147L40.031,40.031L38.783,40.031ZM40.031,38.783L39.407,38.159L38.783,38.783L11.667,65.9L11.043,66.524L11.667,67.147C19.024,74.505,29.002,78.638,39.407,78.638C49.812,78.638,59.79,74.505,67.147,67.147L67.771,66.524L67.147,65.9L40.031,38.783Z"/>
</g>
  <g id="Thin-S" transform="matrix(1.0,0.0,0.0,1.0,818.3028725865981,621.3628921178481)">  <path stroke-opacity="1" stroke-linecap="butt" stroke-linejoin="miter" stroke-dasharray="none" stroke-miterlimit="4" stroke-width="2px" fill-rule="nonzero" version="1.1" stroke="none" fill-opacity="1" xmlns:xlink="http://www.w3.org/1999/xlink" fill="#000000" d="M38.908,38.908L11.792,66.025L12.79,66.025C5.73,58.965,1.764,49.391,1.764,39.407C1.764,29.424,5.73,19.849,12.79,12.79L11.792,12.79L38.908,39.906L38.908,38.908ZM39.906,39.906L40.405,39.407L39.906,38.908L12.79,11.792L12.291,11.292L11.792,11.792C4.467,19.116,0.353,29.049,0.353,39.407C0.353,49.765,4.467,59.699,11.792,67.023L12.291,67.522L12.79,67.023L39.906,39.906Z"/>
  <path fill-opacity="1" stroke-linecap="butt" stroke-dasharray="none" stroke-linejoin="miter" stroke-width="2px" fill="#000000" stroke="none" fill-rule="nonzero" stroke-opacity="1" version="1.1" xmlns:xlink="http://www.w3.org/1999/xlink" stroke-miterlimit="4" d="M39.407,39.407L12.291,12.291C19.482,5.099,29.236,1.058,39.407,1.058C49.578,1.058,59.332,5.099,66.524,12.291ZM39.407,39.407"/>
  <path version="1.1" stroke="none" fill-rule="nonzero" stroke-linejoin="miter" stroke-opacity="1" stroke-miterlimit="4" stroke-width="2px" stroke-linecap="butt" xmlns:xlink="http://www.w3.org/1999/xlink" stroke-dasharray="none" fill="#000000" fill-opacity="1" d="M39.906,38.908L12.79,11.792L12.79,12.79C19.849,5.73,29.424,1.764,39.407,1.764C49.391,1.764,58.965,5.73,66.025,12.79L66.025,11.792L38.908,38.908L39.906,38.908ZM38.908,39.906L39.407,40.405L39.906,39.906L67.023,12.79L67.522,12.291L67.023,11.792C59.699,4.467,49.765,0.353,39.407,0.353C29.049,0.353,19.116,4.467,11.792,11.792L11.292,12.291L11.792,12.79L38.908,39.906Z"/>
  <path stroke-linejoin="miter" version="1.1" stroke-width="2px" stroke-miterlimit="4" xmlns:xlink="http://www.w3.org/1999/xlink" stroke-linecap="butt" fill-rule="nonzero" stroke="none" fill-opacity="1" stroke-dasharray="none" stroke-opacity="1" fill="#000000" d="M39.906,39.906L67.023,12.79L66.025,12.79C73.084,19.849,77.05,29.424,77.05,39.407C77.05,49.391,73.084,58.965,66.025,66.025L67.023,66.025L39.906,38.908L39.906,39.906ZM38.908,38.908L38.409,39.407L38.908,39.906L66.025,67.023L66.524,67.522L67.023,67.023C74.347,59.699,78.461,49.765,78.461,39.407C78.461,29.049,74.347,19.116,67.023,11.792L66.524,11.292L66.025,11.792L38.908,38.908Z"/>
  <path stroke-width="2px" version="1.1" stroke-opacity="1" stroke-linecap="butt" stroke-dasharray="none" xmlns:xlink="http://www.w3.org/1999/xlink" stroke="none" stroke-miterlimit="4" fill="#000000" stroke-linejoin="miter" fill-rule="nonzero" fill-opacity="1" d="M38.908,39.906L66.025,67.023L66.025,66.025C58.965,73.084,49.391,77.05,39.407,77.05C29.424,77.05,19.849,73.084,12.79,66.025L12.79,67.023L39.906,39.906L38.908,39.906ZM39.906,38.908L39.407,38.409L38.908,38.908L11.792,66.025L11.292,66.524L11.792,67.023C19.116,74.347,29.049,78.461,39.407,78.461C49.765,78.461,59.699,74.347,67.023,67.023L67.522,66.524L67.023,66.025L39.906,38.908Z"/>
</g>
  <g id="Ultralight-S" transform="matrix(1.0,0.0,0.0,1.0,521.5928725865981,621.3628921178481)">  <path fill-rule="nonzero" stroke-dasharray="none" stroke="none" xmlns:xlink="http://www.w3.org/1999/xlink" fill-opacity="1" stroke-linecap="butt" version="1.1" stroke-opacity="1" stroke-miterlimit="4" stroke-linejoin="miter" fill="#000000" stroke-width="2px" d="M39.033,39.033L11.916,66.149L12.665,66.149C5.572,59.057,1.588,49.437,1.588,39.407C1.588,29.377,5.572,19.757,12.665,12.665L11.916,12.665L39.033,39.781L39.033,39.033ZM39.781,39.781L40.156,39.407L39.781,39.033L12.665,11.916L12.291,11.542L11.916,11.916C4.625,19.207,0.529,29.096,0.529,39.407C0.529,49.718,4.625,59.607,11.916,66.898L12.291,67.272L12.665,66.898L39.781,39.781Z"/>
  <path stroke-linejoin="miter" stroke-miterlimit="4" xmlns:xlink="http://www.w3.org/1999/xlink" stroke-linecap="butt" version="1.1" stroke-opacity="1" fill-opacity="1" stroke-dasharray="none" stroke="none" stroke-width="2px" fill="#000000" fill-rule="nonzero" d="M39.407,39.407L12.291,12.291C19.482,5.099,29.236,1.058,39.407,1.058C49.578,1.058,59.332,5.099,66.524,12.291ZM39.407,39.407"/>
  <path stroke-linecap="butt" stroke-width="2px" stroke="none" version="1.1" stroke-linejoin="miter" fill="#000000" stroke-miterlimit="4" fill-opacity="1" fill-rule="nonzero" xmlns:xlink="http://www.w3.org/1999/xlink" stroke-opacity="1" stroke-dasharray="none" d="M39.781,39.033L12.665,11.916L12.665,12.665C19.757,5.572,29.377,1.588,39.407,1.588C49.437,1.588,59.057,5.572,66.149,12.665L66.149,11.916L39.033,39.033L39.781,39.033ZM39.033,39.781L39.407,40.156L39.781,39.781L66.898,12.665L67.272,12.291L66.898,11.916C59.607,4.625,49.718,0.529,39.407,0.529C29.096,0.529,19.207,4.625,11.916,11.916L11.542,12.291L11.916,12.665L39.033,39.781Z"/>
  <path stroke-miterlimit="4" stroke-width="2px" stroke-linecap="butt" fill-opacity="1" fill-rule="nonzero" version="1.1" stroke="none" stroke-dasharray="none" fill="#000000" xmlns:xlink="http://www.w3.org/1999/xlink" stroke-linejoin="miter" stroke-opacity="1" d="M39.781,39.781L66.898,12.665L66.149,12.665C73.242,19.757,77.226,29.377,77.226,39.407C77.226,49.437,73.242,59.057,66.149,66.149L66.898,66.149L39.781,39.033L39.781,39.781ZM39.033,39.033L38.659,39.407L39.033,39.781L66.149,66.898L66.524,67.272L66.898,66.898C74.189,59.607,78.285,49.718,78.285,39.407C78.285,29.096,74.189,19.207,66.898,11.916L66.524,11.542L66.149,11.916L39.033,39.033Z"/>
  <path stroke-width="2px" stroke="none" xmlns:xlink="http://www.w3.org/1999/xlink" stroke-opacity="1" stroke-miterlimit="4" stroke-linecap="butt" stroke-dasharray="none" stroke-linejoin="miter" fill-rule="nonzero" fill="#000000" version="1.1" fill-opacity="1" d="M39.033,39.781L66.149,66.898L66.149,66.149C59.057,73.242,49.437,77.226,39.407,77.226C29.377,77.226,19.757,73.242,12.665,66.149L12.665,66.898L39.781,39.781L39.033,39.781ZM39.781,39.033L39.407,38.659L39.033,39.033L11.916,66.149L11.542,66.524L11.916,66.898C19.207,74.189,29.096,78.285,39.407,78.285C49.718,78.285,59.607,74.189,66.898,66.898L67.272,66.524L66.898,66.149L39.781,39.033Z"/>
</g>
 </g>
</svg>
